<?xml version="1.0" encoding="UTF-8" standalone="no"?>
<!-- Created with Inkscape (http://www.inkscape.org/) -->

<svg
   width="720mm"
   height="256.72699mm"
   viewBox="0 0 720 256.72699"
   version="1.1"
   id="svg1"
   xml:space="preserve"
   inkscape:version="1.4.2 (f4327f4, 2025-05-13)"
   sodipodi:docname="acro.svg"
   xmlns:inkscape="http://www.inkscape.org/namespaces/inkscape"
   xmlns:sodipodi="http://sodipodi.sourceforge.net/DTD/sodipodi-0.dtd"
   xmlns="http://www.w3.org/2000/svg"
   xmlns:svg="http://www.w3.org/2000/svg"><sodipodi:namedview
     id="namedview1"
     pagecolor="#ffffff"
     bordercolor=""
     borderopacity="0.25"
     inkscape:showpageshadow="2"
     inkscape:pageopacity="0.0"
     inkscape:pagecheckerboard="0"
     inkscape:deskcolor="#d1d1d1"
     inkscape:document-units="mm"
     inkscape:zoom="0.25197127"
     inkscape:cx="1059.6446"
     inkscape:cy="964.39566"
     inkscape:window-width="1920"
     inkscape:window-height="1005"
     inkscape:window-x="-8"
     inkscape:window-y="-8"
     inkscape:window-maximized="1"
     inkscape:current-layer="layer1" /><defs
     id="defs1" /><g
     inkscape:label="Layer 1"
     inkscape:groupmode="layer"
     id="layer1"><g
       id="g34"
       transform="matrix(2.8967224,0,0,2.8967224,-708.39045,-660.71045)"><path fill="currentColor"
         style="fill:#4d4d4d"
         d="m 386.66435,314.40316 c -0.41261,-2.44627 -0.1832,-5.77606 0.57359,-8.32532 0.55905,-1.88317 0.61149,-1.95749 1.267,-1.79577 1.06943,0.26385 1.11502,0.44891 0.52416,2.12781 -0.60577,1.72124 -0.81575,5.91585 -0.42655,8.52064 l 0.20755,1.38906 h -0.91125 -0.91125 z m 43.54333,1.4534 c 0.10859,-0.25466 0.25429,-1.84051 0.3238,-3.52412 0.10471,-2.53638 0.0303,-3.44109 -0.43421,-5.27792 -0.579,-2.28961 -0.55318,-2.464 0.40774,-2.75367 0.51021,-0.15381 0.63592,0.0176 1.19063,1.6239 0.53122,1.53824 0.62019,2.30829 0.62019,5.36775 0,4.60502 -0.11387,5.02708 -1.35627,5.02708 -0.80292,0 -0.91886,-0.0714 -0.75188,-0.46302 z m -112.66144,-3.57187 -3.60516,-3.77031 -0.0131,3.50572 -0.0131,3.50573 h -0.92604 -0.92605 v -5.68854 c 0,-3.1287 0.0893,-5.676 0.19844,-5.66068 0.10914,0.0153 0.97235,0.89587 1.91823,1.95675 0.94589,1.06088 1.92573,2.0081 2.17744,2.10493 0.2517,0.0968 0.4303,0.26698 0.39687,0.37812 -0.0752,0.25023 2.47024,2.94067 2.78225,2.94067 0.12449,0 0.20678,-1.51804 0.18286,-3.37343 l -0.0435,-3.37344 h 0.89005 0.89005 l 0.0714,5.62239 c 0.0393,3.09232 -0.0291,5.6224 -0.15201,5.6224 -0.12288,0 -1.84574,-1.69664 -3.82857,-3.77031 z m 82.82915,-0.001 -3.63002,-3.76882 -0.008,3.50572 -0.008,3.50573 h -0.92604 -0.92604 v -5.68854 c 0,-3.1287 0.0893,-5.67803 0.19844,-5.66519 0.10914,0.0128 1.74625,1.6794 3.63802,3.70346 1.89177,2.02406 3.53487,3.68043 3.65135,3.68082 0.11647,3.8e-4 0.19152,-1.51734 0.16679,-3.37273 l -0.045,-3.37344 0.95768,-0.0821 0.95769,-0.0821 v 5.70452 c 0,3.13748 -0.0893,5.70384 -0.19844,5.70302 -0.10914,-8.2e-4 -1.83195,-1.69746 -3.82846,-3.77031 z m 47.85188,3.56618 c -0.24256,-0.39247 -4.40747,-10.37763 -4.4746,-10.72761 -0.0366,-0.1909 0.29765,-0.31156 0.86309,-0.31156 h 0.92284 l 1.44835,3.50273 1.44835,3.50272 1.39485,-3.50272 c 0.76718,-1.9265 1.39678,-3.5325 1.39912,-3.56888 0.0143,-0.22159 1.85635,-0.0148 1.85635,0.20839 0,0.33982 -4.24331,10.62124 -4.50982,10.92717 -0.10612,0.12182 -0.26296,0.10821 -0.34853,-0.0302 z m -152.25599,-0.4448 c -2.43791,-1.10385 -3.5349,-2.69145 -3.55774,-5.14888 -0.0297,-3.19239 1.8391,-5.31003 4.88011,-5.53 0.91263,-0.066 2.03289,0.0302 2.62444,0.22545 0.96144,0.31731 1.03211,0.4102 1.03211,1.35662 0,0.55879 -0.0643,1.01598 -0.14283,1.01598 -0.0786,0 -0.63115,-0.24912 -1.22799,-0.55361 -2.40778,-1.22835 -4.95527,0.25335 -5.18432,3.01538 -0.0827,0.99676 0.0131,1.67357 0.32111,2.26915 0.91099,1.76168 3.41369,2.43382 5.04341,1.3545 1.08756,-0.72027 1.19062,-0.67814 1.19062,0.48669 0,0.85127 -0.11789,1.06971 -0.7276,1.34819 -1.16001,0.52982 -3.26054,0.60913 -4.25132,0.16053 z m 30.51629,-0.0212 c -5.42455,-2.06674 -4.33163,-10.23601 1.42513,-10.65242 3.66267,-0.26493 6.11042,1.91869 6.11042,5.45106 0,2.07472 -0.81743,3.63201 -2.43112,4.63154 -1.484,0.91919 -3.57482,1.1526 -5.10443,0.56982 z m 3.65911,-1.85066 c 1.09384,-0.53218 1.7834,-1.51178 1.95271,-2.77407 0.19582,-1.45997 -0.0943,-2.32492 -1.11121,-3.31244 -1.51056,-1.46696 -3.47645,-1.51651 -4.90143,-0.12355 -1.65018,1.6131 -1.5839,4.2806 0.14406,5.79776 1.07185,0.9411 2.51634,1.09319 3.91587,0.4123 z m 14.24009,1.99511 c -1.24398,-0.29425 -2.71753,-1.55002 -3.43549,-2.92774 -0.47961,-0.92034 -0.59156,-1.49398 -0.51606,-2.64442 0.19664,-2.99664 2.10973,-5.01998 4.93998,-5.22471 3.63295,-0.26278 6.09001,1.92984 6.10461,5.44761 0.0155,3.73226 -3.31395,6.24318 -7.09304,5.34926 z m 4.14762,-2.74812 c 0.89462,-0.89462 0.96686,-1.08367 0.96686,-2.53054 0,-1.83861 -0.55643,-2.7912 -2.06987,-3.5436 -3.67757,-1.82827 -6.98477,3.39683 -3.94329,6.23008 0.96526,0.89917 1.29343,1.00477 2.79734,0.90013 1.06143,-0.0739 1.44852,-0.25563 2.24896,-1.05607 z m 7.64508,2.64661 c -2.42422,-0.89934 -3.63302,-2.60701 -3.63453,-5.1345 -10e-4,-1.98067 0.41865,-3.07059 1.62111,-4.2086 1.14007,-1.07897 2.02887,-1.40529 3.82759,-1.40529 1.67949,0 2.83454,0.42803 3.92934,1.45611 l 0.78007,0.73253 -0.73129,0.58311 -0.73129,0.58311 -0.79533,-0.74296 c -1.48473,-1.38694 -3.79201,-1.2351 -5.11448,0.33657 -2.09123,2.48528 -0.46322,6.31194 2.68535,6.31194 1.20051,0 2.04576,-0.5201 2.60604,-1.60356 l 0.40216,-0.77769 h -1.32971 -1.32971 v -0.92604 -0.92604 h 2.28172 2.28172 l -0.11935,1.43928 c -0.2769,3.33897 -3.52179,5.4349 -6.62941,4.28203 z m 20.72496,-0.0851 c -0.94846,-0.49855 -1.71501,-1.40866 -1.98827,-2.36065 -0.13506,-0.4705 -0.0217,-0.58873 0.70373,-0.73381 0.48823,-0.0976 0.90209,-0.0608 0.95056,0.0846 0.0472,0.14163 0.32467,0.56114 0.61658,0.93225 0.71388,0.90755 1.91033,0.91482 2.49978,0.0152 0.72857,-1.11193 0.32457,-1.81776 -1.58351,-2.7666 -2.22711,-1.10748 -2.67289,-1.62543 -2.67289,-3.10564 0,-1.0036 0.132,-1.30249 0.86407,-1.9566 0.67956,-0.60718 1.11477,-0.77204 2.03807,-0.77204 1.41094,0 2.37739,0.40161 2.9053,1.20732 0.3619,0.55232 0.34245,0.62834 -0.26218,1.0245 -0.61456,0.40268 -0.69946,0.39363 -1.43942,-0.15345 -0.66901,-0.49462 -0.88707,-0.53548 -1.46133,-0.27383 -1.40962,0.64227 -1.01952,1.74453 0.85068,2.4037 2.47249,0.87146 3.393,2.38948 2.75012,4.53524 -0.57252,1.91087 -2.96042,2.87171 -4.77129,1.91985 z m 85.18633,-0.0626 c -0.15064,-0.28147 -0.27389,-0.694 -0.27389,-0.91673 0,-0.39351 0.75521,-0.95274 1.28663,-0.95274 0.38388,0 1.09462,0.77307 1.09462,1.19062 0,0.52026 -0.75025,1.19063 -1.3325,1.19063 -0.27553,0 -0.62422,-0.2303 -0.77486,-0.51178 z m 28.4523,0.096 c -0.22867,-0.22867 -0.41577,-0.57736 -0.41577,-0.77485 0,-0.41755 0.71074,-1.19062 1.09462,-1.19062 0.57951,0 1.28663,0.57638 1.28663,1.04874 0,0.58225 -0.67037,1.33251 -1.19063,1.33251 -0.19749,0 -0.54617,-0.1871 -0.77485,-0.41578 z M 280.3127,311.02792 V 306.53 h -1.20738 c -1.2028,0 -1.20708,-0.003 -1.12448,-0.8599 l 0.0829,-0.85989 3.24114,-0.046 3.24115,-0.046 v 0.90588 c 0,0.89724 -0.0113,0.90587 -1.19063,0.90587 h -1.19062 v 4.49792 4.49791 h -0.92604 -0.92605 z m 5.08776,-0.8599 0.0716,-5.35781 h 2.91042 2.91041 l 0.0829,0.85989 0.0829,0.8599 h -2.13343 -2.13343 v 1.19063 1.19062 h 2.07257 2.07257 v 0.79375 0.79375 h -2.07257 -2.07257 v 1.5875 1.5875 h 2.11667 2.11666 v 0.92604 0.92604 h -3.04818 -3.04819 z m 16.87266,-0.0661 v -5.42396 h 0.92604 0.92604 v 2.11666 2.11667 h 2.11667 2.11667 v -2.13343 -2.13343 l 0.85989,0.0829 0.8599,0.0829 0.0716,5.35781 0.0716,5.35781 h -0.93152 -0.93152 v -2.46911 -2.46911 l -2.05052,0.0217 -2.05052,0.0217 -0.0761,2.4474 -0.0761,2.44739 h -0.91612 -0.91611 z m 33.13359,0.0661 0.0716,-5.35781 h 0.92604 0.92604 l 0.0462,4.36562 0.0462,4.36563 1.47515,0.0794 1.47515,0.0794 v 0.91284 0.91283 h -2.51902 -2.51902 z m 28.83958,0 0.0716,-5.35781 0.8599,-0.0829 0.85989,-0.0829 v 5.44072 5.44072 h -0.93152 -0.93152 z m 3.76143,5.01894 c -0.0715,-0.18639 -0.0975,-2.5974 -0.0578,-5.35782 l 0.0722,-5.01893 2.97656,-0.0748 2.97656,-0.0748 v 0.9347 0.93471 h -1.98437 -1.98438 v 1.19063 1.19062 h 1.98438 1.98437 v 0.79375 0.79375 h -1.95988 -1.95989 l -0.0906,1.47783 c -0.0499,0.81281 -0.041,1.52718 0.0196,1.5875 0.0606,0.0603 0.97034,0.10967 2.02157,0.10967 h 1.91133 l 0.10811,0.92604 0.10811,0.92604 h -2.99788 c -2.19267,0 -3.03281,-0.091 -3.12793,-0.33887 z m 23.1654,-5.08508 v -5.42396 h 0.92604 0.92604 v 5.42396 5.42395 h -0.92604 -0.92604 z m 15.14192,0.0661 0.0716,-5.35781 1.71979,0.0209 c 2.64595,0.0321 3.62938,0.30979 4.78041,1.34967 2.44794,2.21158 2.24854,6.42463 -0.38963,8.23234 -1.20286,0.82421 -2.35943,1.11272 -4.46065,1.11272 h -1.79317 z m 4.39065,3.21774 c 1.28074,-0.44646 1.98752,-1.81216 1.84255,-3.56032 -0.17134,-2.06614 -1.52901,-3.29544 -3.63954,-3.29544 h -0.80225 v 3.57188 3.57187 h 0.88656 c 0.48761,0 1.25832,-0.12959 1.71268,-0.28799 z m 5.33826,-3.29858 v -5.43866 l 0.8599,0.098 0.8599,0.098 0.0716,5.34064 0.0716,5.34063 h -0.93152 -0.93152 z m 4.80358,0.34542 c 1.31137,-2.80127 2.50298,-5.39088 2.64803,-5.75468 l 0.26371,-0.66146 0.42039,0.79375 c 0.45908,0.8668 4.82888,10.48366 4.82888,10.62718 0,0.0486 -0.45262,0.0884 -1.00582,0.0884 -0.95608,0 -1.03347,-0.0654 -1.56474,-1.32291 l -0.55892,-1.32292 h -2.0942 -2.0942 l -0.61962,1.32292 c -0.58211,1.24282 -0.67981,1.32291 -1.61372,1.32291 h -0.9941 z m 4.19226,0.62159 c 0,-0.13107 -0.29649,-0.87521 -0.65888,-1.65365 -0.36238,-0.77843 -0.66003,-1.34085 -0.66145,-1.24982 -0.001,0.091 -0.29874,0.83518 -0.66071,1.65365 l -0.65812,1.48813 h 1.31958 c 0.72577,0 1.31958,-0.10724 1.31958,-0.23831 z m 12.57951,-0.88699 0.0118,-5.35699 2.08827,0.0515 c 2.42878,0.0599 3.22513,0.48863 3.82241,2.05791 0.75069,1.97239 -0.58854,3.99172 -2.84835,4.29482 l -1.10157,0.14776 v 2.08182 2.08183 l -0.99219,-8.2e-4 -0.99218,-8.1e-4 z m 3.94194,-1.31482 c 0.22654,-0.32342 0.41188,-0.74014 0.41188,-0.92604 0,-0.56832 -1.01983,-1.39634 -1.71979,-1.39634 -0.62538,0 -0.66146,0.0794 -0.66146,1.45521 0,1.43428 0.0112,1.45521 0.77875,1.45521 0.5048,0 0.92364,-0.20686 1.19062,-0.58804 z m 14.69938,2.17554 v -4.49792 h -1.20739 c -1.2028,0 -1.20707,-0.003 -1.12448,-0.8599 l 0.0829,-0.85989 h 3.175 3.175 l 0.0829,0.85989 c 0.0826,0.85663 0.0783,0.8599 -1.12448,0.8599 h -1.20739 v 4.49792 4.49791 h -0.92604 -0.92604 z m 12.7,-0.92604 v -5.42396 h 0.92604 0.92604 v 4.48471 4.48471 l 1.52136,0.0794 c 1.50409,0.0785 1.52229,0.0891 1.60426,0.93925 l 0.0829,0.85989 h -2.5303 -2.53031 z m 6.61458,0.92604 v -4.49792 h -1.20738 c -1.2028,0 -1.20708,-0.003 -1.12448,-0.8599 l 0.0829,-0.85989 3.02653,-0.0753 c 1.66459,-0.0414 3.16363,-0.0227 3.33121,0.0416 0.17773,0.0682 0.25464,0.45786 0.18458,0.93517 -0.1133,0.77201 -0.18569,0.81826 -1.28069,0.81826 h -1.16059 v 4.49792 4.49791 h -0.92604 -0.92605 z m 5.19019,-0.86022 0.0308,-5.35749 0.9833,-0.0834 c 1.80452,-0.15309 4.3579,0.40138 5.35673,1.16322 2.5642,1.95581 2.5733,6.47462 0.0169,8.4039 -1.12497,0.84901 -2.57534,1.22871 -4.6988,1.23013 l -1.71979,10e-4 z m 4.59146,3.16757 c 0.35943,-0.18188 0.93604,-0.74567 1.28135,-1.25287 0.52227,-0.76715 0.60288,-1.13911 0.47946,-2.21243 -0.0816,-0.70963 -0.34005,-1.58278 -0.57432,-1.94033 -0.49751,-0.75928 -1.88018,-1.39964 -3.02214,-1.39964 h -0.80225 v 3.57188 3.57187 l 0.99219,-0.004 c 0.54571,-0.002 1.28627,-0.15271 1.64571,-0.33458 z M 262.2996,303.55344 c -0.90586,-1.63711 -2.06592,-3.75047 -2.57791,-4.69636 -0.51199,-0.94588 -1.20814,-2.16391 -1.54702,-2.70672 -0.33887,-0.54281 -0.61613,-1.04771 -0.61613,-1.122 0,-0.0743 -1.11241,-2.13049 -2.47201,-4.56932 -1.3596,-2.43884 -2.86245,-5.14862 -3.33966,-6.02175 -0.47722,-0.87312 -1.0765,-1.94469 -1.33175,-2.38125 -0.49108,-0.83992 -1.3185,-2.33846 -2.84877,-5.15937 -0.51311,-0.94589 -1.32259,-2.39425 -1.79884,-3.21859 -0.47625,-0.82433 -0.79622,-1.56847 -0.71105,-1.65364 0.2428,-0.2428 37.85459,-0.18117 38.00504,0.0623 0.0738,0.11942 -0.11525,0.62544 -0.42013,1.12448 -0.30488,0.49904 -1.17776,2.03844 -1.93975,3.42089 -0.76198,1.38245 -2.23277,4.03633 -3.26842,5.89752 -1.03565,1.8612 -1.883,3.42269 -1.883,3.46999 0,0.0473 -0.90838,1.67967 -2.01863,3.62747 -1.11024,1.94781 -3.05992,5.44647 -4.33262,7.7748 -3.89519,7.12606 -5.0266,9.12813 -5.15849,9.12813 -0.0516,0 -0.83499,-1.33945 -1.74086,-2.97656 z m 116.39208,-5.99538 c -5.31624,-1.15818 -9.47892,-3.39922 -12.98709,-6.99178 -7.56339,-7.74532 -8.9907,-20.18302 -3.38882,-29.53036 3.29279,-5.49436 8.45625,-9.3551 14.8024,-11.06779 2.24258,-0.60522 3.04946,-0.68688 6.77891,-0.68601 4.89547,0.001 6.99416,0.4378 10.58333,2.20199 3.30699,1.62549 3.92755,2.04367 6.30073,4.24589 2.27427,2.11043 5.70547,6.82331 5.27853,7.25025 -0.0869,0.0869 -1.43778,0.15808 -3.00186,0.15808 h -2.84379 l -0.92515,-1.25677 c -1.79133,-2.43342 -4.34231,-4.52264 -7.18272,-5.88258 -3.11993,-1.49377 -5.25798,-1.99201 -8.34136,-1.94381 -8.82702,0.13797 -16.01758,5.59531 -18.58399,14.10447 -0.73074,2.42285 -0.78656,8.19067 -0.10119,10.45682 1.12727,3.72726 2.36962,5.9809 4.65128,8.43747 3.64865,3.92835 8.62262,6.02857 14.29848,6.03743 6.04492,0.009 11.20273,-2.54622 15.1962,-7.52959 l 1.00713,-1.25677 h 2.87854 c 1.83343,0 2.87855,0.10083 2.87855,0.27772 0,0.89709 -2.47564,4.55595 -4.29921,6.35401 -2.93977,2.89865 -7.26832,5.34873 -11.28886,6.38981 -2.99133,0.77459 -8.69926,0.88743 -11.71004,0.23152 z m 82.26263,0.0866 c -8.26459,-1.49425 -14.98073,-6.617 -18.31371,-13.96884 -1.60917,-3.54948 -1.85448,-4.85381 -1.84722,-9.82183 0.006,-3.91888 0.0861,-4.77041 0.624,-6.61459 1.12075,-3.84214 2.81628,-6.82591 5.48855,-9.65865 2.31205,-2.4509 4.43042,-4.01431 7.35623,-5.42909 4.07695,-1.97142 6.08139,-2.37499 11.78804,-2.37336 4.36722,0.001 5.13456,0.0697 7.11929,0.63554 5.90869,1.68442 11.023,5.33037 14.21742,10.13547 4.41697,6.64407 5.16533,15.44034 1.95537,22.98363 -1.69435,3.98166 -5.63496,8.48644 -9.40145,10.74742 -5.38776,3.23421 -12.61903,4.51555 -18.98652,3.3643 z m 10.17314,-5.11654 c 8.23319,-2.1057 13.98743,-9.0871 14.42649,-17.50312 0.30966,-5.93552 -1.47541,-10.75605 -5.48075,-14.80068 -5.7778,-5.83448 -15.01408,-7.43392 -22.72874,-3.93593 -0.9487,0.43016 -1.78902,0.86765 -1.86739,0.97219 -0.0784,0.10455 -0.44014,0.34429 -0.80394,0.53276 -0.91191,0.47243 -3.17347,2.58728 -4.30113,4.02211 -6.18938,7.87534 -5.24441,19.49287 2.13107,26.19954 5.03353,4.57708 11.88383,6.23707 18.62439,4.51313 z m -151.12725,4.26524 c 0,-0.11641 0.10454,-0.32477 0.23231,-0.46302 0.12777,-0.13824 1.74708,-3.82323 3.59847,-8.18885 5.84343,-13.77894 12.0703,-28.48645 13.10626,-30.95625 0.54936,-1.30969 1.48005,-3.51235 2.0682,-4.89479 l 1.06938,-2.51355 h 2.70802 2.70802 l 0.71512,1.7198 c 0.39332,0.94588 1.87494,4.45822 3.29249,7.8052 2.5061,5.91717 10.77799,25.65442 13.40235,31.97884 0.71646,1.72659 1.46214,3.45299 1.65708,3.83646 0.19494,0.38346 0.4383,0.96895 0.5408,1.30109 l 0.18636,0.60389 -3.07762,-0.0747 -3.07763,-0.0747 -2.89714,-6.87849 c -1.59342,-3.78317 -3.02495,-7.26574 -3.18115,-7.73906 l -0.28402,-0.86058 h -10.00125 c -7.67901,0 -10.06464,0.0768 -10.27425,0.33073 -0.23173,0.28073 -4.52226,10.67464 -5.84317,14.15521 l -0.42675,1.12448 h -3.11094 c -1.71101,0 -3.11094,-0.0953 -3.11094,-0.21167 z m 30.87593,-20.10351 c -0.16472,-0.54407 -8.14726,-20.26567 -8.24615,-20.37288 -0.0533,-0.0578 -7.47842,18.33171 -8.22644,20.37413 -0.15579,0.42538 0.39414,0.45579 8.22164,0.45462 7.80672,-10e-4 8.37905,-0.0328 8.25095,-0.45587 z m -71.35718,19.95083 c 0,-0.0549 0.72791,-1.39431 1.61758,-2.97657 0.88966,-1.58225 2.27116,-4.06744 3.07,-5.52265 0.79883,-1.45521 1.54206,-2.7649 1.65162,-2.91042 0.10955,-0.14552 0.79714,-1.39568 1.52798,-2.77812 0.73083,-1.38245 3.05278,-5.60917 5.15988,-9.39271 2.10711,-3.78354 4.26313,-7.68284 4.79115,-8.66511 l 0.96004,-1.78593 h -18.78183 c -11.11353,0 -18.78183,-0.0983 -18.78183,-0.2409 0,-0.13249 0.45862,-1.05523 1.01915,-2.05052 0.56054,-0.99529 1.31433,-2.34541 1.67511,-3.00025 2.03682,-3.69706 5.87827,-10.63823 9.88391,-17.85938 2.50238,-4.51114 4.88658,-8.82716 5.29821,-9.59114 0.41163,-0.76399 0.87385,-1.38558 1.02716,-1.38131 0.15331,0.004 0.78429,0.927 1.40217,2.05052 0.61789,1.12352 2.08617,3.76917 3.26285,5.87923 1.17668,2.11005 2.92232,5.26481 3.8792,7.01058 0.95687,1.74577 2.0043,3.65077 2.32761,4.23333 0.32331,0.58257 2.37118,4.2739 4.55081,8.20296 2.17963,3.92906 4.23376,7.62 4.56471,8.20208 0.97675,1.71789 3.19219,5.70788 4.04003,7.27605 1.58453,2.93077 2.38742,4.37168 2.58,4.6302 0.10841,0.14552 0.67021,1.15756 1.24846,2.24896 1.21822,2.29929 2.31865,4.29463 2.99132,5.42396 0.26004,0.43656 0.76249,1.32953 1.11657,1.98438 2.78877,5.15765 5.36955,9.77736 5.80147,10.38489 l 0.51729,0.72761 h -19.20031 c -10.56017,0 -19.20031,-0.0449 -19.20031,-0.0997 z m 128.32292,-23.34323 v -23.44296 l 9.45886,0.12701 c 10.57468,0.14201 12.81653,0.43001 15.6986,2.01674 1.70902,0.94091 4.16014,3.39852 4.96706,4.98023 1.36682,2.67919 1.89022,4.91449 1.88692,8.0586 -0.004,4.07451 -0.8258,6.80472 -2.84705,9.46168 -1.81134,2.38102 -4.82419,4.09554 -8.08208,4.59927 l -2.02658,0.31334 5.79533,8.66453 5.79533,8.66453 h -3.12405 c -2.35341,0 -3.15733,-0.0867 -3.25892,-0.35146 -0.0742,-0.19329 -2.94283,-4.65338 -6.37479,-9.91131 -3.43195,-5.25792 -6.27127,-9.70711 -6.30959,-9.88708 -0.0512,-0.24071 0.73478,-0.3527 2.97304,-0.42358 6.61766,-0.20958 9.11196,-1.51883 11.21153,-5.88491 0.77968,-1.62134 0.82681,-1.89396 0.82337,-4.7625 -0.003,-2.75162 -0.0725,-3.1904 -0.72297,-4.58651 -0.87485,-1.87758 -1.71784,-2.9141 -3.40698,-4.18914 -1.93159,-1.45805 -3.72065,-1.76207 -10.81536,-1.83786 l -5.95313,-0.0636 -0.0677,20.94897 -0.0677,20.94898 h -2.77654 -2.77653 z"
         id="path1" /><path fill="currentColor"
         style="fill:#4d4d4d;stroke-width:1.98435"
         d="m 981.29183,1126.4968 c -9.18412,-16.5779 -24.89474,-44.8755 -34.91249,-62.8835 -10.01774,-18.008 -17.82293,-33.4115 -17.34486,-34.2301 1.04139,-1.783 126.39772,-1.563 133.75672,0.2348 l 5.1309,1.2535 -23.7001,42.6636 c -13.035,23.465 -28.7697,51.7625 -34.9659,62.8835 l -11.26587,20.2199 z"
         id="path2"
         transform="scale(0.26458333)" /><path fill="currentColor"
         style="stroke-width:1.98435"
         d="m 1058.6524,1120.2488 c 0,-0.5009 10.569,-19.9227 23.4867,-43.1596 12.9177,-23.237 27.6071,-49.8392 32.6432,-59.116 5.0362,-9.2769 10.3172,-18.41382 11.7356,-20.30437 2.2689,-3.024 5.9801,2.70307 30.8608,47.62447 15.555,28.084 31.3964,56.6428 35.2033,63.4641 l 6.9216,12.4022 h -70.4256 c -38.734,0 -70.4256,-0.4099 -70.4256,-0.9108 z"
         id="path3"
         transform="scale(0.26458333)" /><path fill="currentColor"
         style="stroke-width:1.98435"
         d="m 992.89742,990.45356 -5.23224,-1.25349 33.52102,-60.52277 c 18.4365,-33.28753 34.5091,-60.52277 35.7169,-60.52277 1.2078,0 17.6398,27.90496 36.5155,62.01103 l 34.3195,62.01104 -64.8042,-0.23478 c -35.6423,-0.12913 -67.15875,-0.79884 -70.03648,-1.48826 z"
         id="path4"
         transform="scale(0.26458333)" /><path fill="currentColor"
         style="stroke-width:1.98435"
         d="m 1212.1247,1118.6791 c 0.6059,-1.3642 17.4739,-40.8777 37.4844,-87.8076 l 36.3828,-85.3272 h 9.5671 9.5671 l 35.5025,84.335 c 19.5264,46.3843 36.0288,85.947 36.6721,87.9172 1.0433,3.1953 0.038,3.5167 -9.3059,2.9765 l -10.4755,-0.6056 -12.017,-29.5067 -12.0169,-29.5066 -38.6949,1.4324 c -24.5673,0.9094 -39.1917,2.2314 -40.0556,3.6207 -0.7484,1.2036 -6.1061,14.0481 -11.9061,28.5434 l -10.5455,26.3551 -10.6301,0.027 c -7.776,0.02 -10.3344,-0.639 -9.5285,-2.4535 z m 114.4154,-72.9983 c 0,-3.3272 -30.2206,-77.31644 -31.5796,-77.31644 -1.2187,0 -31.9608,74.97974 -31.9336,77.88584 0.01,0.8186 14.3013,1.4883 31.7636,1.4883 20.5978,0 31.7496,-0.7228 31.7496,-2.0577 z"
         id="path5"
         transform="scale(0.26458333)" /><path fill="currentColor"
         style="stroke-width:0.992177"
         d="m 1438.16,1125.062 c -21.4299,-2.2881 -45.7754,-15.2498 -59.4052,-31.6277 -14.5905,-17.5322 -21.252,-36.3323 -21.2894,-60.0824 -0.029,-18.2269 3.4766,-31.1134 12.6447,-46.48485 12.3408,-20.69081 30.5419,-34.19334 56.6399,-42.01828 8.4631,-2.5375 38.7449,-2.54246 48.1205,-0.008 10.3322,2.79317 27.4022,11.70165 35.2223,18.38179 9.7464,8.32568 25.1404,27.79712 23.7521,30.04344 -0.3042,0.49216 -5.1634,0.89485 -10.7983,0.89485 -10.0837,0 -10.2732,-0.043 -12.0248,-2.72849 -3.1724,-4.86393 -12.6978,-14.28359 -18.2921,-18.08913 -7.6159,-5.1807 -14.2043,-8.373 -22.8451,-11.06923 -9.2718,-2.89313 -26.478,-3.07833 -36.6855,-0.39486 -22.2177,5.84088 -39.1,19.58963 -48.7766,39.72306 -5.5463,11.5399 -7.0669,19.9924 -6.5149,36.2144 0.41,12.0485 0.7822,14.2793 3.7042,22.2005 11.6081,31.4682 41.3105,50.3271 75.4478,47.9039 18.7783,-1.3329 32.0237,-7.8575 47.3629,-23.3309 l 10.2046,-10.2937 9.3909,0.7041 c 6.7725,0.5077 9.3909,1.07 9.3909,2.0166 0,0.7219 -2.2319,4.6495 -4.9598,8.728 -14.8808,22.2487 -39.4272,36.8206 -66.3206,39.3708 -11.6475,1.1046 -13.1491,1.1012 -23.9685,-0.054 z"
         id="path6"
         transform="scale(0.26458333)" /><path fill="currentColor"
         style="stroke-width:0.992177"
         d="m 1542.3385,1032.8713 v -88.28834 l 28.029,0.53813 c 49.5302,0.95094 58.5457,2.34253 70.0518,10.81284 9.738,7.16873 16.2781,16.87191 19.5686,29.03272 2.2532,8.32743 2.0578,26.64855 -0.3753,35.20205 -5.174,18.1883 -18.9031,30.3204 -38.5698,34.0833 -4.1994,0.8035 -7.7755,1.6011 -7.9468,1.7725 -0.1714,0.1714 9.5008,14.8969 21.4938,32.7233 l 21.8055,32.4118 h -10.2065 c -6.6685,0 -10.7492,-0.4299 -11.7724,-1.2403 -1.4433,-1.143 -48.4221,-73.4115 -48.4221,-74.4887 0,-0.2627 4.7997,-0.7708 10.6659,-1.129 25.5873,-1.5624 33.9062,-5.8161 42.1112,-21.5323 3.2237,-6.1749 3.2808,-6.5091 3.2756,-19.1827 -0.01,-12.33306 -0.1355,-13.15913 -2.9756,-18.85132 -3.5038,-7.02232 -10.54,-14.30233 -16.7102,-17.28927 -6.1711,-2.98742 -12.8038,-3.77581 -38.1032,-4.52913 l -22.0759,-0.65735 v 79.44997 79.4501 h -9.9218 -9.9218 z"
         id="path7"
         transform="scale(0.26458333)" /><path fill="currentColor"
         style="stroke-width:0.992177"
         d="m 1744.1965,1124.6706 c -33.1524,-6.0224 -57.3999,-24.3187 -70.8993,-53.4981 -5.6738,-12.264 -6.4412,-16.6561 -6.435,-36.8284 0,-14.5016 0.3483,-18.9784 1.8289,-23.8122 9.3554,-30.54308 31.9683,-52.8647 63.909,-63.08574 9.2782,-2.96907 40.9177,-3.91347 51.0728,-1.52447 23.4415,5.51466 45.1455,20.23843 57.7015,39.14391 22.1948,33.4189 19.3363,78.93 -6.7948,108.1821 -9.0354,10.1146 -17.26,16.694 -26.8338,21.4661 -19.6356,9.7876 -43.7137,13.5601 -63.5493,9.9568 z m 37.7527,-18.8188 c 25.3193,-7.0664 45.628,-27.7527 51.7221,-52.6838 2.2882,-9.3608 2.3192,-28.4665 0.06,-37.1792 -0.9196,-3.547 -3.5561,-10.2442 -5.8588,-14.8826 -5.7353,-11.55266 -18.5461,-24.53745 -30.0488,-30.45688 -13.7714,-7.08696 -20.714,-8.73616 -36.7105,-8.72055 -16.1077,0.0157 -22.2058,1.3312 -35.2223,7.59813 -7.0578,3.39805 -9.9798,5.61705 -17.9126,13.60309 -6.7762,6.82171 -10.5054,11.52768 -13.0786,16.50414 -9.5398,18.44987 -11.1052,40.62837 -4.2574,60.31917 7.9071,22.7369 29.1838,41.3553 53.6039,46.9067 7.9741,1.8127 29.6743,1.2325 37.7027,-1.0082 z"
         id="path8"
         transform="scale(0.26458333)" /><path fill="currentColor"
         style="stroke-width:0.350787"
         d="m 1393.4329,1191.9659 c -0.9067,-0.1528 -1.7955,-0.3687 -1.9751,-0.4797 -0.6677,-0.4126 -0.829,-6.7577 -0.5775,-22.7141 l 0.2584,-16.3964 1.796,-0.1802 c 0.9878,-0.099 5.9397,-0.267 11.0042,-0.3731 l 9.2081,-0.193 v 3.3353 3.3353 h -7.3665 -7.3665 v 4.7356 4.7357 h 7.3665 7.3665 v 2.8063 2.8063 h -7.3145 -7.3145 l -0.2253,2.894 c -0.1239,1.5917 -0.2263,4.2554 -0.2274,5.9195 v 3.0255 l 1.0962,0.2193 c 0.6029,0.1206 3.9786,0.2192 7.5015,0.2192 h 6.4053 l 0.2261,2.017 c 0.1243,1.1094 0.3142,2.609 0.422,3.3325 l 0.196,1.3155 -9.4144,-0.041 c -5.1779,-0.023 -10.1563,-0.1663 -11.063,-0.3192 z"
         id="path9"
         transform="scale(0.26458333)" /><path fill="currentColor"
         style="stroke-width:0.350787"
         d="m 1376.8368,1172.4192 c 0.1388,-10.949 0.3542,-20.0057 0.4788,-20.126 0.1246,-0.1203 1.5288,-0.3214 3.1205,-0.4467 l 2.894,-0.2279 v 20.3539 20.3539 h -3.3728 -3.3727 z"
         id="path10"
         transform="scale(0.26458333)" /><path fill="currentColor"
         style="stroke-width:0.350787"
         d="m 1346.8482,1192.1157 c -3.7508,-1.2751 -6.1532,-2.7438 -8.8008,-5.3804 -3.9191,-3.9029 -5.3494,-7.9467 -5.2807,-14.93 0.063,-6.4234 1.3893,-9.9492 5.2437,-13.9417 4.4793,-4.6397 7.6103,-5.9418 14.4504,-6.0097 4.8995,-0.049 7.1107,0.3658 10.376,1.9445 2.0555,0.9938 7.3388,5.2695 7.3388,5.9392 0,0.1797 -1.0831,1.1898 -2.407,2.2448 l -2.407,1.9182 -2.0609,-1.8651 c -5.0308,-4.5525 -10.4304,-5.5719 -15.9263,-3.0066 -2.3279,1.0865 -5.4368,4.2359 -6.5854,6.6711 -3.1617,6.7034 -0.9666,15.0984 4.9289,18.8502 5.1757,3.2937 12.1517,2.692 15.6083,-1.3463 1.0895,-1.2728 3.4122,-5.1851 3.4122,-5.7474 0,-0.1177 -2.2889,-0.214 -5.0864,-0.214 h -5.0864 v -3.3325 -3.3324 h 8.4641 8.4641 l -0.2441,3.2447 c -0.4469,5.9413 -1.9282,9.8246 -5.0908,13.3458 -4.774,5.3152 -12.4464,7.281 -19.3107,4.9476 z"
         id="path11"
         transform="scale(0.26458333)" /><path fill="currentColor"
         style="stroke-width:0.496088"
         d="m 1059.8927,1175.2525 v -16.8477 l -4.3408,-0.1433 -4.3408,-0.1434 -0.1465,-2.7754 -0.1464,-2.7754 5.6034,-0.3229 c 3.0819,-0.1776 8.5614,-0.3239 12.1766,-0.3251 h 6.5732 v 2.6293 c 0,1.4461 -0.2679,2.8972 -0.5953,3.2246 -0.3613,0.3612 -2.1167,0.5953 -4.4648,0.5953 h -3.8695 v 16.867 16.867 h -3.2246 -3.2245 z"
         id="path12"
         transform="scale(0.26458333)" /><path fill="currentColor"
         style="stroke-width:0.496088"
         d="m 1078.7452,1183.0466 c 7e-4,-4.9795 0.1479,-13.9091 0.3271,-19.8436 l 0.3258,-10.7899 h 10.5338 c 11.7922,0 11.1361,-0.2216 11.1361,3.7613 v 2.1918 h -7.9374 -7.9374 v 4.7128 4.7129 h 7.9374 7.9374 v 2.7284 2.7285 h -7.9374 -7.9374 v 6.2011 6.2011 h 7.9374 7.9374 v 3.2246 3.2246 h -11.162 -11.162 z"
         id="path13"
         transform="scale(0.26458333)" /><path fill="currentColor"
         style="stroke-width:0.496088"
         d="m 1121.5781,1192.6017 c -4.5685,-0.9613 -10.5637,-5.0203 -12.9481,-8.7664 -3.405,-5.3495 -4.0628,-13.7472 -1.587,-20.2602 1.564,-4.1144 6.0335,-8.5839 10.1479,-10.1479 4.0777,-1.5501 10.7886,-1.9134 15.1306,-0.8191 3.8774,0.9771 4.9609,2.0754 4.9609,5.0283 0,3.7694 -0.114,3.8183 -4.3462,1.8629 -6.7838,-3.1343 -12.4619,-2.3112 -16.7188,2.4234 -2.7231,3.0288 -3.7435,6.1191 -3.7285,11.2922 0.018,6.1353 2.8578,10.4043 8.2683,12.4286 4.2387,1.5859 7.8268,1.3588 11.8756,-0.7516 1.8479,-0.9632 3.6501,-1.6399 4.0048,-1.5038 1.0805,0.4146 0.819,4.8843 -0.3746,6.4017 -1.7676,2.2472 -9.9356,3.8112 -14.6849,2.8119 z"
         id="path14"
         transform="scale(0.26458333)" /><path fill="currentColor"
         style="stroke-width:0.496088"
         d="m 1142.7394,1172.0086 v -20.0916 h 3.2246 3.2245 v 7.9374 7.9375 h 8.1855 8.1855 v -7.9375 -7.9374 l 2.3564,0.01 c 4.1079,0.013 3.8252,-1.438 4.0044,20.5616 l 0.1597,19.614 h -3.2603 -3.2602 v -9.1776 -9.1777 h -7.8837 -7.8836 l -0.3622,9.1777 -0.3622,9.1776 h -3.1642 -3.1642 z"
         id="path15"
         transform="scale(0.26458333)" /><path fill="currentColor"
         style="stroke-width:0.496088"
         d="m 1200.4097,1179.9342 -14.0145,-14.3208 v 13.2434 13.2434 h -3.5405 -3.5404 l 0.3588,-20.4637 c 0.1974,-11.255 0.5245,-20.6374 0.7269,-20.8498 0.2024,-0.2124 3.4295,2.8451 7.1712,6.7944 3.7417,3.9493 7.2426,7.3201 7.7799,7.4906 0.5372,0.1705 1.3401,1.0197 1.7841,1.8872 0.9558,1.8668 9.5224,10.7547 10.366,10.7547 0.8816,0 1.2089,-4.114 1.2136,-15.2547 v -10.0458 h 2.9191 2.9191 l 0.3346,16.495 c 0.1839,9.0722 0.154,18.4866 -0.067,20.9209 l -0.4011,4.426 z"
         id="path16"
         transform="scale(0.26458333)" /><path fill="currentColor"
         style="stroke-width:0.496088"
         d="m 1237.0187,1192.5764 c -9.4882,-1.9712 -15.9552,-10.1103 -15.959,-20.0853 0,-6.5179 2.038,-11.2123 6.7427,-15.5121 4.084,-3.7326 7.1448,-4.7773 13.9066,-4.7465 6.1779,0.028 8.3777,0.639 12.5249,3.4783 3.1308,2.1434 6.1943,6.5179 7.1386,10.1933 1.0475,4.0773 0.795,10.9854 -0.5268,14.4123 -1.1821,3.0651 -4.9152,7.5658 -7.7059,9.2905 -4.1361,2.5563 -11.543,3.9206 -16.1211,2.9695 z m 10.805,-7.4566 c 5.2034,-2.6002 7.663,-6.869 7.6822,-13.3332 0.012,-3.959 -0.8667,-6.1515 -3.6933,-9.2181 -5.5297,-5.9989 -13.261,-6.6991 -18.9245,-1.7139 -3.411,3.0025 -5.061,6.7355 -5.0385,11.3992 0.053,11.1042 10.2965,17.702 19.9741,12.866 z"
         id="path17"
         transform="scale(0.26458333)" /><path fill="currentColor"
         style="stroke-width:0.496088"
         d="m 1267.7537,1182.7545 c 0,-5.1401 0.1471,-14.0697 0.3269,-19.8435 l 0.3269,-10.4979 h 3.0658 3.0658 l 0.3148,16.1925 c 0.1732,8.9058 0.4318,16.3093 0.5747,16.4522 0.1429,0.1429 2.6044,0.3641 5.4701,0.4916 l 5.2102,0.2317 v 3.1595 3.1596 h -9.1776 -9.1776 z"
         id="path18"
         transform="scale(0.26458333)" /><path fill="currentColor"
         style="stroke-width:0.496088"
         d="m 1303.0413,1192.5887 c -5.5093,-1.1613 -11.5253,-6.1259 -14.3642,-11.8538 -1.4076,-2.8401 -1.576,-3.6427 -1.576,-7.513 0,-15.0214 11.5124,-24.0137 26.286,-20.5318 4.1456,0.9771 6.7312,2.52 9.7384,5.8115 3.4245,3.7482 4.91,8.0361 4.8511,14.0031 -0.071,7.1498 -2.9762,12.8999 -8.4065,16.636 -4.486,3.0865 -11.4008,4.5289 -16.5288,3.448 z m 10.7876,-7.4026 c 2.7562,-1.4061 6.3421,-5.505 7.0285,-8.034 0.6534,-2.4074 0.3832,-7.6436 -0.5562,-10.7791 -0.8978,-2.9967 -3.091,-5.295 -6.7908,-7.1163 -2.7011,-1.3296 -3.8839,-1.6281 -6.3389,-1.5997 -9.3425,0.1081 -15.9926,10.4262 -12.7899,19.8442 1.0036,2.9511 5.624,7.8266 8.1495,8.5994 2.4322,0.7442 9.1052,0.204 11.2978,-0.9145 z"
         id="path19"
         transform="scale(0.26458333)" /><path fill="currentColor"
         style="stroke-width:0.496088"
         d="m 1427.0672,1192.5504 c -3.7155,-1.1299 -7.0426,-4.0571 -9.0225,-7.938 -1.3236,-2.5944 -1.2246,-3.2398 0.5938,-3.8737 2.9676,-1.0345 4.0191,-0.7034 5.5792,1.7571 1.773,2.7961 3.9011,4.148 6.501,4.1298 3.2209,-0.023 5.6959,-2.6812 5.7017,-6.1249 0,-2.5383 -1.8038,-4.245 -7.9541,-7.5081 -5.5733,-2.957 -8.1048,-5.2246 -8.852,-7.9292 -1.2548,-4.5421 -0.3911,-7.4304 3.1554,-10.5521 2.6961,-2.3733 4.3686,-2.824 9.1962,-2.4786 3.7616,0.2691 7.174,1.8807 8.6042,4.0633 1.1796,1.8004 1.0188,2.3778 -1.0325,3.7075 -1.8045,1.1697 -1.8596,1.1746 -3.3425,0.2931 -0.8292,-0.4929 -2.3416,-1.3629 -3.3607,-1.9334 l -1.8529,-1.0372 -2.3581,1.2402 c -2.851,1.4995 -3.7302,3.3213 -2.5864,5.3591 0.7028,1.2523 3.8479,3.1204 8.8492,5.2563 2.7691,1.1826 5.798,3.9064 7.0304,6.322 1.7966,3.5216 1.0427,9.4294 -1.6545,12.9656 -2.6136,3.4267 -9.0924,5.5287 -13.1949,4.2812 z"
         id="path20"
         transform="scale(0.26458333)" /><path fill="currentColor"
         style="stroke-width:0.496088"
         d="m 1462.2804,1191.9762 c -1.3392,-7.7215 -1.6561,-13.3427 -1.1024,-19.5585 0.6238,-7.0044 1.5801,-12.066 3.3206,-17.5757 1.4498,-4.5892 1.8952,-5.0467 4.2741,-4.3899 2.9807,0.823 3.1235,1.3531 1.6918,6.2804 -1.6729,5.7573 -2.2187,9.4409 -2.5942,17.5085 -0.2791,5.997 0.2403,14.9413 1.1244,19.3616 l 0.2948,1.4741 h -3.2356 -3.2357 z"
         id="path21"
         transform="scale(0.26458333)" /><path fill="currentColor"
         style="stroke-width:0.496088"
         d="m 1478.5912,1172.0086 v -20.0916 h 3.2246 3.2245 v 20.0916 20.0916 h -3.2245 -3.2246 z"
         id="path22"
         transform="scale(0.26458333)" /><path fill="currentColor"
         style="stroke-width:0.496088"
         d="m 1513.4414,1179.9451 -14.0145,-14.3111 v 13.2331 13.2331 h -3.5532 -3.5533 l 0.333,-20.4431 c 0.1831,-11.2437 0.5207,-20.631 0.7503,-20.8606 0.2296,-0.2295 4.8518,4.226 10.2717,9.9013 12.7207,13.3202 16.4145,17.0158 17.0078,17.0158 0.7706,0 1.2198,-7.9164 0.96,-16.917 -0.2727,-9.4453 -0.5502,-8.8591 4.2004,-8.8728 l 2.3564,-0.01 -0.058,17.9832 c -0.032,9.8908 -0.1993,19.4171 -0.372,21.1696 l -0.3141,3.1864 z"
         id="path23"
         transform="scale(0.26458333)" /><path fill="currentColor"
         style="stroke-width:0.496088"
         d="m 1535.8087,1179.0779 c 0.1797,-7.1623 0.3272,-16.0919 0.3277,-19.8436 l 10e-4,-6.8212 6.0771,0.01 c 10.1944,0.014 14.8675,1.5244 19.1724,6.1946 8.9796,9.7417 6.1167,25.7074 -5.5925,31.1882 -3.7449,1.7529 -7.0683,2.2957 -14.056,2.2957 h -6.2563 z m 15.5939,5.8168 c 5.0832,-1.5096 7.5759,-5.0101 7.9397,-11.1498 0.389,-6.5653 -1.729,-11.0935 -6.3678,-13.6135 -2.1909,-1.1902 -3.4422,-1.499 -6.7851,-1.6745 l -4.0989,-0.2151 v 13.7046 13.7046 h 3.3826 c 1.8604,0 4.5287,-0.3403 5.9295,-0.7563 z"
         id="path24"
         transform="scale(0.26458333)" /><path fill="currentColor"
         style="stroke-width:0.496088"
         d="m 1572.848,1171.9392 v -20.161 l 2.7807,0.287 c 1.5294,0.1579 2.8381,0.3565 2.9082,0.4415 0.07,0.085 0.2762,9.0282 0.4581,19.874 l 0.3305,19.7195 h -3.2388 -3.2387 z"
         id="path25"
         transform="scale(0.26458333)" /><path fill="currentColor"
         style="stroke-width:0.496088"
         d="m 1582.4233,1191.4801 c 0.1407,-0.3411 4.2495,-9.2149 9.1307,-19.7195 4.8812,-10.5047 9.1515,-19.7422 9.4895,-20.5278 0.3381,-0.7856 0.6984,-1.3437 0.8007,-1.2402 0.5219,0.5279 19.1243,41.2709 19.1243,41.886 0,0.1219 -1.4543,0.2216 -3.2318,0.2216 -3.1063,0 -3.2696,-0.062 -4.2005,-1.5928 -0.5328,-0.876 -1.5899,-3.1077 -2.3492,-4.9593 l -1.3805,-3.3664 h -8.0559 -8.0559 l -2.0445,4.0928 c -2.835,5.6752 -3.0073,5.829 -6.53,5.829 -2.1679,0 -2.8847,-0.1648 -2.6969,-0.6201 z m 23.0425,-15.0713 c 1.4948,-0.4006 1.4199,-1.0647 -0.6551,-5.8081 -3.2148,-7.3488 -2.8801,-7.3341 -5.9672,-0.2626 -1.4731,3.3744 -2.6786,6.1911 -2.6789,6.2593 -10e-4,0.2623 8.2424,0.095 9.3012,-0.1886 z"
         id="path26"
         transform="scale(0.26458333)" /><path fill="currentColor"
         style="stroke-width:0.496088"
         d="m 1626.1284,1194.2346 c 0.6584,-2.0857 1.2722,-10.8802 1.2742,-18.2573 0,-6.1249 -0.2291,-9.0135 -1.0101,-12.6502 -2.2973,-10.6975 -2.3147,-10.9083 -0.9839,-11.9859 0.6678,-0.5408 1.7477,-0.8967 2.4666,-0.8131 1.0508,0.1222 1.4838,0.6667 2.4287,3.0536 2.9586,7.4743 3.2309,9.4675 3.2628,23.8839 0.027,12.378 -0.045,13.5449 -0.9513,15.3787 -0.9596,1.941 -1.0442,1.9876 -3.8752,2.1344 -2.5969,0.1346 -2.8652,0.058 -2.6118,-0.7441 z"
         id="path27"
         transform="scale(0.26458333)" /><path fill="currentColor"
         style="stroke-width:0.496088"
         d="m 1654.2064,1172.1873 v -19.9129 l 6.8213,0.2711 c 9.6734,0.3844 12.2221,1.4921 14.4317,6.2719 3.6568,7.9104 -0.9206,15.6897 -10.091,17.1493 -4.6873,0.746 -4.2167,-0.1974 -4.2167,8.4536 v 7.6799 h -3.4726 -3.4727 z m 12.8834,-3.0457 c 1.6209,-0.8202 3.4903,-3.6528 3.4765,-5.2678 -0.031,-3.6206 -7.3861,-7.3788 -8.9011,-4.5481 -0.6659,1.2444 -0.6659,8.2466 0,9.491 0.6056,1.1316 3.4891,1.3043 5.4246,0.3249 z"
         id="path28"
         transform="scale(0.26458333)" /><path fill="currentColor"
         style="stroke-width:0.496088"
         d="m 1692.4968,1189.4957 c -7.6521,-17.5493 -15.0723,-36.0264 -14.7059,-36.6192 0.1575,-0.2549 1.572,-0.4634 3.1433,-0.4634 h 2.857 l 5.4128,13.1464 c 2.9771,7.2305 5.5291,13.1459 5.6713,13.1455 0.1421,-5e-4 2.6175,-5.9721 5.5007,-13.2704 l 5.2423,-13.2695 h 3.0291 c 1.6661,0 3.1604,0.1344 3.3207,0.2948 0.624,0.6239 -16.4017,41.6213 -17.2848,41.6213 -0.1021,0 -1.0861,-2.0649 -2.1865,-4.5888 z"
         id="path29"
         transform="scale(0.26458333)" /><path fill="currentColor"
         style="stroke-width:0.496088"
         d="m 1724.651,1175.2332 v -16.867 h -3.6801 c -2.0241,0 -4.0332,-0.1355 -4.4648,-0.3011 -0.8349,-0.3204 -0.9795,-1.5773 -0.4729,-4.1105 l 0.3118,-1.5591 11.7184,0.1328 11.7183,0.1329 0.1543,2.4324 c 0.1021,1.6101 -0.066,2.5719 -0.4961,2.8449 -0.3577,0.2269 -2.3805,0.4159 -4.4951,0.4201 l -3.8447,0.01 v 16.867 16.867 h -3.2245 -3.2246 z"
         id="path30"
         transform="scale(0.26458333)" /><path fill="currentColor"
         style="stroke-width:0.496088"
         d="m 1772.7715,1172.0086 v -20.0916 h 3.2246 3.2246 v 16.7953 16.7953 l 3.3486,0.3162 c 1.8417,0.174 4.1731,0.3179 5.1808,0.3198 2.2459,0 3.3767,1.3715 3.3767,4.0826 v 1.874 h -9.1776 -9.1777 z"
         id="path31"
         transform="scale(0.26458333)" /><path fill="currentColor"
         style="stroke-width:0.496088"
         d="m 1747.3701,1192.2242 c -1.4002,-1.6192 -1.8785,-3.879 -1.0662,-5.0386 0.7207,-1.029 3.1397,-2.5267 4.0809,-2.5267 1.0885,0 3.5354,3.086 3.5354,4.4588 0,2.9031 -4.7697,5.1652 -6.5501,3.1065 z"
         id="path32"
         transform="scale(0.26458333)" /><path fill="currentColor"
         style="stroke-width:0.496088"
         d="m 1797.576,1175.2332 v -16.867 h -3.908 c -4.6579,0 -5.1545,-0.3801 -4.7123,-3.6064 l 0.3102,-2.2633 4.5271,-0.3215 c 2.4899,-0.1769 7.8757,-0.2514 11.9684,-0.1657 l 7.4413,0.1558 0.1563,1.8982 c 0.094,1.1391 -0.1589,2.3792 -0.6316,3.1006 -0.7247,1.106 -1.1046,1.2023 -4.745,1.2023 h -3.9573 v 16.867 16.867 h -3.2246 -3.2245 z"
         id="path33"
         transform="scale(0.26458333)" /><path fill="currentColor"
         style="stroke-width:0.496088"
         d="m 1817.4195,1172.3097 c 0,-17.5886 0.087,-19.8239 0.7847,-20.0915 1.5994,-0.6138 9.0286,-0.2593 13.3773,0.6382 5.7045,1.1774 8.9193,2.8147 11.7853,6.0024 3.3679,3.7459 4.5051,7.0653 4.5051,13.1498 0,6.1733 -1.1509,9.465 -4.6465,13.2898 -4.5479,4.9761 -9.8473,6.7782 -19.9769,6.7932 l -5.829,0.01 z m 15.4287,12.7767 c 3.6106,-1.2088 7.5826,-5.5579 8.4046,-9.2023 0.4974,-2.2055 -0.3362,-8.2527 -1.504,-10.9104 -1.6674,-3.7946 -7.0933,-6.6075 -12.7456,-6.6075 h -2.6385 v 13.6424 13.6424 h 3.3986 c 1.8692,0 4.1574,-0.254 5.0849,-0.5646 z"
         id="path34"
         transform="scale(0.26458333)" /></g></g></svg>
