<?xml version="1.0" encoding="UTF-8" standalone="no"?>
<!-- Created with Inkscape (http://www.inkscape.org/) -->

<svg
   width="720mm"
   height="184mm"
   viewBox="0 0 720 184"
   version="1.1"
   id="svg1"
   xml:space="preserve"
   inkscape:version="1.4.2 (f4327f4, 2025-05-13)"
   sodipodi:docname="epikdoc.svg"
   xmlns:inkscape="http://www.inkscape.org/namespaces/inkscape"
   xmlns:sodipodi="http://sodipodi.sourceforge.net/DTD/sodipodi-0.dtd"
   xmlns="http://www.w3.org/2000/svg"
   xmlns:svg="http://www.w3.org/2000/svg"><sodipodi:namedview
     id="namedview1"
     pagecolor="#ffffff"
     bordercolor="#000000"
     borderopacity="0.25"
     inkscape:showpageshadow="2"
     inkscape:pageopacity="0.0"
     inkscape:pagecheckerboard="0"
     inkscape:deskcolor="#d1d1d1"
     inkscape:document-units="mm"
     inkscape:zoom="0.25197127"
     inkscape:cx="1924.8226"
     inkscape:cy="821.52223"
     inkscape:window-width="1920"
     inkscape:window-height="1005"
     inkscape:window-x="-8"
     inkscape:window-y="-8"
     inkscape:window-maximized="1"
     inkscape:current-layer="layer1" /><defs
     id="defs1" /><g
     inkscape:label="Layer 1"
     inkscape:groupmode="layer"
     id="layer1"><g
       id="g4"
       transform="matrix(0.65032008,0,0,0.65032008,-228.54614,-288.66714)"><path
         style="fill:#000000"
         d="M 542.30612,614.69007 V 504.26119 l 10.26528,0.18581 10.26529,0.18582 0.1817,14.31581 0.1817,14.31581 4.03564,-4.89195 c 16.5287,-20.03588 40.5026,-29.79494 67.44633,-27.45539 41.33821,3.58943 72.80474,32.56672 78.95805,72.71185 5.24726,34.2339 -11.30506,68.57338 -41.57524,86.25212 -24.1868,14.12585 -57.46276,15.42151 -81.4947,3.17315 -8.54538,-4.35533 -18.25581,-12.35098 -23.88516,-19.66726 l -3.17519,-4.12668 -0.33657,42.74352 -0.33656,42.74352 -10.26529,0.18582 -10.26528,0.18582 z m 98.73579,36.63923 c 20.57724,-4.25035 37.48464,-17.3219 46.05188,-35.6039 13.51577,-28.8419 5.01768,-64.81865 -19.65059,-83.19097 -18.40071,-13.70438 -44.8991,-16.89717 -65.56479,-7.89989 -20.58205,8.96087 -35.24342,28.08782 -39.06708,50.96621 -5.68509,34.01599 15.294,66.57004 48.41915,75.1338 7.65275,1.97845 21.75081,2.25971 29.81143,0.59475 z m 332.40603,21.97154 c -17.2036,-1.915 -34.5481,-10.07821 -46.2826,-21.78307 -5.4101,-5.39634 -6.6382,-6.91834 -10.9146,-13.52615 -9.1243,-14.09865 -13.4449,-28.48994 -14.2712,-47.53434 -1.089,-25.10178 5.4424,-46.1905 19.7982,-63.92497 4.2148,-5.20674 14.2588,-14.20575 18.3501,-16.44091 0.9256,-0.50565 3.3488,-1.84534 5.3851,-2.97709 6.4953,-3.61017 17.1439,-6.97778 25.796,-8.158 21.3653,-2.91441 41.54596,2.43915 55.74336,14.78767 2.1132,1.83799 4.169,3.3418 4.5685,3.3418 0.5101,0 0.7262,-10.21724 0.7262,-34.32979 v -34.32978 h 24.2349 24.2348 l -0.1703,109.88897 -0.1703,109.88897 -22.7183,0.17723 -22.7182,0.17724 v -8.75968 c 0,-8.31093 -0.069,-8.75969 -1.3463,-8.75969 -0.7404,0 -1.3463,0.26812 -1.3463,0.59581 0,0.32769 -1.4049,2.30241 -3.1221,4.38826 -9.0106,10.94506 -23.3986,16.98192 -41.77196,17.52656 -5.1112,0.1515 -11.4134,0.0394 -14.005,-0.24904 z m 28.81176,-45.56293 c 8.1753,-1.83586 14.2019,-5.19983 20.3269,-11.34621 9.1851,-9.21716 12.8784,-19.08296 12.3075,-32.87707 -0.3683,-8.89745 -2.2045,-14.94072 -6.5805,-21.65724 -6.6883,-10.26559 -16.4618,-16.30498 -29.57666,-18.27635 -21.1264,-3.17564 -40.425,8.46258 -46.9477,28.3123 -1.5485,4.71223 -1.7869,6.56062 -1.7869,13.85201 0,7.31898 0.2357,9.13195 1.8111,13.92887 2.881,8.7719 6.9025,14.77783 13.5151,20.184 9.5238,7.78623 23.7914,10.83038 36.93116,7.87969 z m 358.2398,45.75248 c -4.0622,-0.34941 -15.3018,-3.03677 -20.8672,-4.98923 -9.2516,-3.24573 -21.5993,-10.81627 -29.5242,-18.10176 -9.4688,-8.70469 -18.8053,-23.3656 -22.9839,-36.09073 -3.1308,-9.53451 -3.7535,-13.20942 -4.1558,-24.52452 -0.444,-12.49008 0.2723,-19.71466 2.8551,-28.79717 1.9284,-6.78116 1.7572,-6.35732 6.339,-15.68745 9.8186,-19.99358 27.7368,-35.45376 49.5505,-42.75308 9.9932,-3.34393 18.7128,-4.51348 30.5663,-4.0998 24.2368,0.84585 44.4911,9.32214 60.6087,25.36432 9.8915,9.84518 17.6161,22.93477 21.8517,37.02846 0.6119,2.03622 1.231,4.08087 1.3758,4.54364 0.2072,0.66258 -4.9591,0.84142 -24.3062,0.84142 -22.7863,0 -24.6006,-0.0855 -25.0005,-1.17798 -0.9892,-2.70234 -5.7316,-8.91814 -9.2753,-12.15682 -8.4108,-7.68704 -21.3664,-11.2629 -33.6849,-9.29736 -6.6909,1.0676 -9.5869,2.19247 -15.129,5.87646 -5.8755,3.90565 -10.8045,9.922 -14.0032,17.09227 -1.8976,4.2539 -4.1714,14.95494 -4.1714,19.63199 0,3.43894 0.2833,5.05258 2.4826,14.14362 2.1268,8.79103 10.5266,19.45881 18.8663,23.96026 10.3643,5.59426 26.4794,5.98099 37.2248,0.89332 6.3928,-3.02688 13.2348,-9.55082 17.189,-16.39009 l 1.2648,-2.18769 h 24.4242 c 16.332,0 24.4242,0.23006 24.4242,0.69437 0,0.93423 -2.535,8.56657 -3.6819,11.08546 -0.5057,1.11067 -1.4605,3.3825 -2.1218,5.0485 -0.6612,1.666 -2.7307,5.52126 -4.5989,8.56724 -15.5152,25.29745 -42.5832,40.70326 -72.9567,41.52351 -5.0581,0.13659 -10.711,0.11807 -12.5621,-0.0412 z m -199.2474,-2.54752 c -17.2073,-4.36094 -29.1465,-11.01147 -41.1238,-22.90718 -17.1013,-16.9848 -25.853,-38.05464 -25.853,-62.24112 0,-15.8983 3.498,-29.09982 11.4469,-43.20062 5.4658,-9.69594 12.6065,-18.03215 21.5366,-25.14251 11.3031,-8.99967 25.7525,-15.44354 40.2882,-17.96691 6.7278,-1.16794 23.6197,-0.94867 30.0542,0.39013 35.9477,7.47934 62.3028,33.5764 69.7251,69.04236 2.0599,9.84314 2.057,24.4211 -0.01,34.1205 -4.3519,20.45273 -15.3063,38.46938 -31.3497,51.56068 -6.4537,5.26621 -18.9419,11.9277 -27.2619,14.54215 -10.0474,3.15728 -16.6151,4.11437 -27.9035,4.06628 -9.9123,-0.0422 -11.5221,-0.22861 -19.5523,-2.26376 z m 28.2456,-26.02028 c 3.7475,-1.76157 6.261,-4.22188 7.8485,-7.68256 1.0527,-2.29467 1.2352,-4.48291 1.2352,-14.80893 0,-13.95464 -0.5164,-15.89574 -5.3235,-20.01038 -6.4192,-5.49461 -19.294,-5.01027 -24.6909,0.92886 -3.6848,4.05499 -3.9493,5.35529 -3.9493,19.41809 0,13.02805 0.013,13.1462 1.7638,15.81862 3.7234,5.68394 7.5731,7.67658 14.9036,7.71421 3.9348,0.0202 5.9617,-0.31986 8.2126,-1.37791 z m -27.9311,-44.04269 c 1.6539,-1.11669 3.9257,-3.51619 5.0485,-5.33224 1.7138,-2.77204 2.0791,-4.12976 2.276,-8.46098 0.2835,-6.23663 -1.4225,-10.94646 -5.1508,-14.21996 -4.1438,-3.63828 -5.654,-3.94994 -19.1267,-3.94718 -11.2984,0.002 -12.4992,0.11818 -14.6622,1.4149 -6.392,3.83191 -8.7508,8.09777 -8.7508,15.82566 0,7.12094 2.4428,11.70264 8.1057,15.20324 2.7343,1.69023 3.6874,1.78456 16.8003,1.66266 l 12.4529,-0.11576 z m 70.1381,1.42694 c 3.7661,-1.34519 6.3981,-3.75124 8.3628,-7.64491 1.634,-3.23836 1.7606,-4.06091 1.5024,-9.76043 -0.2455,-5.42095 -0.5233,-6.58614 -2.1529,-9.03027 -1.029,-1.54342 -3.1085,-3.66379 -4.6209,-4.71193 l -2.75,-1.90571 h -13.967 -13.9671 l -2.9029,2.04022 c -4.3788,3.07753 -6.7443,7.38138 -7.1465,13.00243 -0.6181,8.63912 3.3152,15.45175 10.3744,17.9687 3.5125,1.25238 23.7915,1.28354 27.2677,0.0419 z m -40.519,-31.27496 c 1.6545,-0.99558 3.9263,-3.11528 5.0485,-4.71044 l 2.0402,-2.9003 0.2125,-12.21553 c 0.2477,-14.24379 -0.2452,-16.79551 -3.9898,-20.65407 -3.6003,-3.70989 -6.4072,-4.71503 -13.1667,-4.71503 -6.2708,0 -8.5075,0.78342 -12.2265,4.28244 -3.9197,3.68787 -4.3916,5.23721 -4.6977,15.42178 -0.4933,16.41318 0.7561,20.98559 6.8697,25.13985 4.7988,3.2609 14.7815,3.43703 19.9098,0.3513 z M 430.40638,671.17652 c -37.37993,-3.08801 -68.97952,-32.59329 -75.6351,-70.62224 -2.94901,-16.85015 0.0758,-37.18634 7.80989,-52.50755 6.3435,-12.5664 17.89837,-25.60026 29.39572,-33.15829 7.8251,-5.144 9.32974,-5.94312 16.20156,-8.60473 36.04288,-13.96022 76.43831,-1.48886 99.00481,30.56594 10.34324,14.69215 15.40992,29.50887 16.08721,47.04458 l 0.38349,9.92872 H 449.51153 375.3691 l 0.0103,2.52424 c 0.0279,6.80196 4.98776,19.96595 10.64089,28.24179 6.14454,8.99523 17.66251,18.36008 28.28383,22.99657 11.81261,5.15652 26.77307,6.35865 39.36891,3.16346 18.21755,-4.62127 33.97997,-16.90446 40.54507,-31.59561 l 1.97837,-4.42714 10.93842,-0.0181 c 8.63124,-0.0143 10.93841,0.16968 10.93841,0.87217 0,1.46724 -5.80342,12.92997 -9.00945,17.79519 -11.70664,17.76506 -29.69064,30.42324 -50.92698,35.84536 -4.13566,1.05593 -19.43628,2.95426 -20.83955,2.58554 -0.18511,-0.0486 -3.28605,-0.3321 -6.89097,-0.62991 z m 71.19005,-98.72555 c -0.82527,-4.41789 -4.30261,-13.68531 -7.03755,-18.75572 -11.81674,-21.90746 -32.06097,-34.03392 -56.74189,-33.98886 -24.83346,0.0453 -46.34717,14.15489 -57.11267,37.45676 -2.44329,5.2885 -5.33522,14.38943 -5.33522,16.79 0,0.90677 7.1467,1.02207 63.34943,1.02207 h 63.34943 z m 232.34511,94.98469 c -0.66056,-0.66055 -0.56079,-161.27408 0.10082,-162.31666 0.41214,-0.64944 3.00607,-0.8143 10.59154,-0.67313 l 10.04574,0.18695 v 81.4491 81.44909 l -10.13626,0.18513 c -5.57494,0.10181 -10.34577,-0.0244 -10.60184,-0.28048 z m 48.67312,-109.9619 V 447.04488 l 10.26529,0.18581 10.26528,0.18582 0.33656,78.35077 0.33657,78.35077 10.9501,-14.40313 c 6.02255,-7.92172 14.42941,-18.94678 18.68192,-24.50013 9.40534,-12.28245 19.36389,-25.33891 28.238,-37.02232 12.36226,-16.27582 15.39596,-20.18877 17.09166,-22.0451 l 1.6908,-1.85112 h 12.6636 c 8.7351,0 12.6636,0.22892 12.6636,0.73795 0,0.40587 -3.5814,5.32815 -7.9587,10.93841 -25.3395,32.47708 -45.36193,58.07584 -49.57201,63.37798 -2.64573,3.332 -5.03504,6.43155 -5.30959,6.88787 -0.3192,0.53056 11.03686,14.60609 31.4987,39.04172 27.7422,33.13003 31.9989,38.50299 32.0063,40.39972 l 0.01,2.18768 h -11.7051 -11.7051 l -26.49725,-31.92234 c -14.57236,-17.55728 -26.80098,-31.9455 -27.1747,-31.97382 -0.37373,-0.0283 -1.01148,0.47861 -1.41723,1.1265 -0.40575,0.64789 -6.00672,7.842 -12.4466,15.98691 l -11.70887,14.80893 -0.33657,15.81863 -0.33656,15.81862 -10.26528,0.18582 -10.26529,0.18582 z m -48.828,-73.53271 c -0.18353,-0.47826 -0.25279,-8.89193 -0.15392,-18.69705 l 0.17977,-17.82749 h 10.43356 10.43357 v 18.51116 18.51116 l -10.27965,0.18589 c -7.91633,0.14315 -10.35637,-0.014 -10.61333,-0.68367 z"
         id="path1" /><path
         style="fill:#4d4d4d;stroke-width:7.93741"
         d="m 3617.8715,2525.1918 c -80.7276,-27.8939 -132.2496,-75.1033 -170.113,-155.8741 -79.9037,-170.4516 -12.7829,-383.3043 143.4866,-455.023 52.9971,-24.3225 142.0792,-32.0422 195.8921,-16.9755 20.2295,5.6639 53.6975,21.9346 74.3733,36.157 l 37.5924,25.8591 5.0365,-48.186 c 2.77,-26.5023 5.0364,-85.1663 5.0364,-130.3645 v -82.1785 h 87.3115 87.3116 v 375.9193 c 0,206.7556 -2.2714,392.4911 -5.0476,412.7455 l -5.0476,36.8262 h -78.2952 -78.2953 v -31.7497 c 0,-17.4623 -3.6909,-31.7496 -8.202,-31.7496 -4.5111,0 -20.2556,12.0536 -34.9879,26.7859 -14.7323,14.7322 -43.8242,32.5914 -64.6487,39.687 -50.1258,17.0797 -139.0616,16.2065 -191.4031,-1.8791 z m 184.123,-152.8634 c 43.6063,-12.1058 95.008,-64.9576 107.1959,-110.22 27.9902,-103.9474 -36.0772,-199.1166 -142.5317,-211.7246 -105.6227,-12.5094 -194.8241,80.8958 -178.8682,187.2977 15.9914,106.6383 107.621,164.2359 214.204,134.6469 z"
         id="path2"
         transform="scale(0.26458333)" /><path
         style="fill:#4d4d4d;stroke-width:7.93741"
         d="m 4368.247,2524.7415 c -60.675,-19.4044 -93.6495,-40.9978 -139.9233,-91.6288 -91.3874,-99.9923 -113.3077,-232.1607 -58.0783,-350.1832 71.7567,-153.3406 233.7842,-226.7869 392.2983,-177.8269 132.4201,40.9004 227.6849,170.4951 227.6849,309.7342 0,216.539 -216.5781,375.5947 -421.9816,309.9047 z m 145.2772,-95.1919 c 16.672,-13.5001 18.7385,-21.7242 18.7385,-74.5721 0,-74.9672 -12.7084,-92.8149 -66.0888,-92.8149 -55.566,0 -64.8785,13.2142 -64.8785,92.0604 0,58.9852 1.8241,67.0654 17.6409,78.1439 24.3593,17.0619 71.7825,15.6494 94.5879,-2.8173 z m -112.6055,-163.0173 c 23.3275,-24.8309 26.1469,-75.5282 5.471,-98.3748 -28.024,-30.9662 -125.9302,-31.2187 -156.7447,-0.4043 -16.741,16.741 -20.1522,62.0797 -6.579,87.4416 11.7355,21.9278 35.16,29.6906 91.3621,30.277 41.2749,0.4306 50.8577,-2.299 66.4906,-18.9395 z m 279.3667,-3.8565 c 18.6424,-23.0224 19.5128,-77.2816 1.5579,-97.1215 -10.6451,-11.7627 -25.203,-14.5154 -76.7647,-14.5154 -78.9195,0 -92.6594,9.4159 -92.6594,63.4993 0,57.0129 23.3348,72.0095 106.3513,68.3488 37.7135,-1.663 49.6789,-5.5943 61.5149,-20.2112 z M 4519.8964,2147.56 c 16.2465,-17.2936 17.8389,-25.4214 14.9606,-76.3605 -2.7036,-47.8468 -6.1817,-59.4042 -21.6462,-71.9266 -23.8301,-19.2964 -72.7978,-19.4618 -96.43,-0.3256 -15.7659,12.7664 -18.0891,22.131 -18.5515,74.7787 -0.6696,76.2241 11.4198,93.1877 66.412,93.1877 29.0318,0 41.0171,-4.198 55.2551,-19.3537 z"
         id="path3"
         transform="scale(0.26458333)" /><path
         style="fill:#4d4d4d;stroke-width:7.93741"
         d="m 5087.8816,2529.2897 c -93.5775,-30.9898 -164.371,-92.4745 -204.8397,-177.9046 -23.4958,-49.5998 -25.3453,-59.5859 -25.3453,-136.8469 0,-76.959 1.908,-87.3698 24.9093,-135.9153 29.2671,-61.7702 68.6077,-107.753 120.3675,-140.6902 153.753,-97.8405 376.909,-41.856 459.6289,115.3099 45.3938,86.2471 47.9751,81.9214 -48.8854,81.9214 h -84.0113 l -33.6005,-34.8891 c -104.9374,-108.9622 -268.2208,-38.1808 -267.5798,115.9927 0.5087,122.3407 111.8464,198.4425 219.0807,149.7466 17.9992,-8.1736 43.002,-27.7402 55.5619,-43.4813 l 22.8361,-28.6201 85.3272,-3e-4 c 66.0355,-10e-5 85.3272,2.405 85.3272,10.6381 0,5.8511 -10.7804,32.2118 -23.9564,58.5792 -30.3781,60.7922 -88.337,115.2288 -156.8315,147.3006 -45.4243,21.2695 -63.9965,25.3143 -124.8025,27.1809 -43.8909,1.3473 -83.6793,-1.8615 -103.1864,-8.3216 z"
         id="path4"
         transform="scale(0.26458333)" /></g></g></svg>
