<?xml version="1.0" encoding="UTF-8" standalone="no"?>
<!-- Created with Inkscape (http://www.inkscape.org/) -->

<svg
   width="48mm"
   height="64mm"
   viewBox="0 0 48 64"
   version="1.1"
   id="svg1"
   xml:space="preserve"
   inkscape:version="1.4.2 (f4327f4, 2025-05-13)"
   sodipodi:docname="favicon.svg"
   xmlns:inkscape="http://www.inkscape.org/namespaces/inkscape"
   xmlns:sodipodi="http://sodipodi.sourceforge.net/DTD/sodipodi-0.dtd"
   xmlns="http://www.w3.org/2000/svg"
   xmlns:svg="http://www.w3.org/2000/svg"><sodipodi:namedview
     id="namedview1"
     pagecolor="#ffffff"
     bordercolor="#000000"
     borderopacity="0.25"
     inkscape:showpageshadow="2"
     inkscape:pageopacity="0.0"
     inkscape:pagecheckerboard="0"
     inkscape:deskcolor="#d1d1d1"
     inkscape:document-units="mm"
     inkscape:zoom="1.4253648"
     inkscape:cx="-46.303937"
     inkscape:cy="181.0063"
     inkscape:window-width="1920"
     inkscape:window-height="1005"
     inkscape:window-x="-8"
     inkscape:window-y="-8"
     inkscape:window-maximized="1"
     inkscape:current-layer="layer1" /><defs
     id="defs1" /><g
     inkscape:label="Layer 1"
     inkscape:groupmode="layer"
     id="layer1"><path
       style="fill:#6366f1;fill-opacity:1;stroke-width:1.84227"
       d="M 2.5430617,63.097059 C 2.0854218,62.545628 2.0584131,62.057112 2.4393359,61.221012 2.8939551,60.223235 3.3951089,60.05721 6.7090513,59.806586 9.651149,59.584077 10.710072,59.291154 11.602157,58.453084 13.746622,56.438462 13.597416,55.332471 9.9519193,46.220846 8.091165,41.570037 5.6355754,35.352041 4.4950591,32.403052 3.3545614,29.454066 1.7646763,25.729296 0.96197728,24.12576 c -1.61490211,-3.226086 -1.40469877,-3.183823 2.56793082,0.516261 4.8360872,4.50431 10.3186279,8.492195 11.6750969,8.492195 2.347521,0 7.578058,-4.835295 13.182005,-12.185905 4.662839,-6.116175 8.896262,-11.1942256 9.184117,-11.0165196 0.177597,0.1096156 0.35416,-0.3206482 0.392277,-0.9562706 0.07479,-1.2468527 -0.228001,-1.4045333 -3.725046,-1.9401199 -2.623421,-0.4017822 -4.162072,-1.1317106 -3.58625,-1.7012872 0.743487,-0.7354369 14.813839,-5.44346693 15.491318,-5.18350327 0.475289,0.18238538 0.744224,1.90749327 0.975871,6.25966917 0.175938,3.3043627 0.422785,6.7756174 0.548686,7.7139434 0.125827,0.938309 -3.51e-4,2.035035 -0.280542,2.437167 -0.422139,0.605851 -0.917933,0.283748 -2.892854,-1.879472 -1.310871,-1.435853 -2.618114,-2.465575 -2.904975,-2.288274 -0.28686,0.177228 -2.753632,3.655206 -5.481693,7.7287 -4.751103,7.094221 -9.411731,15.974786 -13.224084,25.197757 -3.181022,7.695577 -6.240601,13.884429 -7.560851,15.293826 -2.07969,2.220165 -4.740565,3.205856 -8.6869233,3.218015 -2.5334802,0.0074 -3.6417757,-0.191173 -4.0930039,-0.734883 z M 11.283706,24.217173 C 8.9691622,23.012581 6.9419753,19.893202 6.9419753,17.536267 c 0,-1.961804 2.0254545,-5.486005 3.8496947,-6.698315 2.022452,-1.3440145 5.692783,-1.4755531 8.184167,-0.293327 0.93573,0.444044 2.256752,1.646645 2.935613,2.672461 1.064467,1.608529 1.205088,2.268764 1.022094,4.798689 -0.174463,2.411226 -0.467016,3.204493 -1.643365,4.45538 -2.829203,3.008456 -6.387745,3.629377 -10.006473,1.746018 z"
       id="path1"
       sodipodi:nodetypes="scsssccsssccsssccsscccccssssccccss" /></g></svg>
