<?xml version="1.0" encoding="UTF-8" standalone="no"?>
<!-- Created with Inkscape (http://www.inkscape.org/) -->

<svg
   width="256mm"
   height="52mm"
   viewBox="0 0 256 52"
   version="1.1"
   id="svg1"
   xml:space="preserve"
   inkscape:version="1.4.2 (f4327f4, 2025-05-13)"
   sodipodi:docname="logo.svg"
   xmlns:inkscape="http://www.inkscape.org/namespaces/inkscape"
   xmlns:sodipodi="http://sodipodi.sourceforge.net/DTD/sodipodi-0.dtd"
   xmlns="http://www.w3.org/2000/svg"
   xmlns:svg="http://www.w3.org/2000/svg"><sodipodi:namedview
     id="namedview1"
     pagecolor="#ffffff"
     bordercolor="#000000"
     borderopacity="0.25"
     inkscape:showpageshadow="2"
     inkscape:pageopacity="0.0"
     inkscape:pagecheckerboard="0"
     inkscape:deskcolor="#d1d1d1"
     inkscape:document-units="mm"
     inkscape:zoom="1.0078851"
     inkscape:cx="152.7952"
     inkscape:cy="-69.452362"
     inkscape:window-width="1920"
     inkscape:window-height="1005"
     inkscape:window-x="-8"
     inkscape:window-y="-8"
     inkscape:window-maximized="1"
     inkscape:current-layer="layer1" /><defs
     id="defs1" /><g
     inkscape:label="Layer 1"
     inkscape:groupmode="layer"
     id="layer1"><path
       style="fill:#6366f1;stroke-width:1.49299;fill-opacity:1"
       d="m 32.384458,51.16081 c -0.370874,-0.446883 -0.392762,-0.842779 -0.08406,-1.520359 0.368426,-0.808604 0.774564,-0.943152 3.460202,-1.146259 2.384293,-0.180323 3.24245,-0.417709 3.965401,-1.096886 1.737887,-1.632661 1.61697,-2.528963 -1.337362,-9.913076 -1.507966,-3.769043 -3.49799,-8.808143 -4.422271,-11.19802 -0.924266,-2.389876 -2.212718,-5.408451 -2.86323,-6.707966 -1.308726,-2.614438 -1.138376,-2.580188 2.081066,0.418381 3.919193,3.650319 8.362276,6.882124 9.461566,6.882124 1.902445,0 6.141302,-3.918551 10.682773,-9.875528 3.778792,-4.956583 7.209582,-9.0718648 7.442862,-8.9278508 C 60.91533,8.1642032 61.058418,7.815515 61.089308,7.300403 61.149918,6.2899463 60.904535,6.1621611 58.070509,5.7281186 55.944474,5.402512 54.697542,4.8109738 55.164192,4.3493856 c 0.602526,-0.5960023 12.00522,-4.41141704 12.554253,-4.20074099 0.385177,0.14780617 0.603124,1.54584359 0.790852,5.07287209 0.142581,2.6778746 0.342627,5.4909993 0.444658,6.2514243 0.101971,0.760411 -2.84e-4,1.649204 -0.227353,1.975094 -0.342104,0.490985 -0.743898,0.229951 -2.344385,-1.523135 -1.062338,-1.163623 -2.121735,-1.9981157 -2.354209,-1.85443 -0.232473,0.143626 -2.231559,2.9622 -4.442396,6.263383 -3.850321,5.749198 -7.627321,12.946059 -10.716874,20.420408 -2.577918,6.23654 -5.057419,11.252021 -6.127357,12.394205 -1.685393,1.799234 -3.841781,2.598044 -7.039933,2.607898 -2.053147,0.006 -2.951316,-0.154928 -3.316994,-0.595554 z M 185.26717,41.917236 c -3.30027,-0.659903 -4.73647,-2.499985 -4.73877,-6.071385 -0.003,-4.686546 2.13167,-6.239451 8.8865,-6.464654 l 3.9502,-0.131682 -0.11809,-1.48166 c -0.174,-2.182739 -0.79841,-3.495078 -1.90228,-3.998037 -0.53869,-0.245448 -2.83755,-0.446256 -5.10857,-0.446256 h -4.12913 v -1.382584 -1.38257 h 5.04267 c 5.74447,0 7.20944,0.479444 8.58554,2.809825 0.72406,1.226164 0.79005,2.047205 0.79005,9.830842 v 8.492943 h -1.38259 c -1.21464,0 -1.39775,-0.131981 -1.50756,-1.086391 l -0.12496,-1.08639 -1.29235,0.985733 c -0.7108,0.54215 -2.23421,1.164339 -3.38536,1.38266 -1.15114,0.218305 -2.11317,0.376472 -2.13782,0.351495 -0.0246,-0.02493 -0.66701,-0.169828 -1.42742,-0.321889 z m 5.882,-3.362979 c 1.42635,-0.737598 2.14334,-2.203984 2.183,-4.464642 l 0.033,-1.878094 -2.958,-0.117946 c -3.65343,-0.145716 -4.55464,0.06942 -5.76612,1.376687 -1.02205,1.102798 -1.23918,2.802868 -0.52777,4.132168 0.97379,1.819539 4.44889,2.289652 7.03596,0.951842 z M 0.3975,31.200124 V 20.510721 l 1.4813314,0.122575 c 1.3337043,0.110332 1.4742994,0.228055 1.4107875,1.180867 l -0.070469,1.058277 1.7029062,-1.20032 c 3.1081847,-2.190846 7.6005219,-1.791949 9.8438609,0.874101 l 0.960113,1.141049 1.419223,-1.338512 c 2.481278,-2.340145 7.014747,-2.735205 9.805536,-0.854498 2.6394,1.77869 2.861647,2.668797 3.002944,12.026585 l 0.127053,8.419726 -1.509698,-0.124366 -1.509713,-0.124217 -0.208631,-7.505389 c -0.120783,-4.34362 -0.40145,-7.946224 -0.666352,-8.551841 -0.664172,-1.518447 -2.024929,-2.311225 -3.967058,-2.311225 -2.130245,0 -3.451527,0.847183 -4.560701,2.924233 -0.77755,1.45607 -0.877595,2.322184 -0.996781,8.630118 l -0.132428,7.011612 h -1.548098 -1.548098 v -7.05143 c 0,-4.106145 -0.183474,-7.612271 -0.439268,-8.394181 C 12.031697,23.502408 8.787695,22.425812 6.0028177,24.123701 3.857329,25.431771 3.5577154,26.735884 3.5577154,34.766433 v 7.123063 H 1.9776376 0.39754479 Z m 61.820738,9.949535 c -3.420832,-1.593411 -4.66324,-4.126301 -4.674856,-9.530662 -0.01194,-5.912829 1.154904,-8.575565 4.511298,-10.287862 1.232584,-0.628818 2.326783,-0.772727 5.875624,-0.772727 h 4.360954 v 1.38257 1.382584 h -3.567877 c -6.338481,0 -7.862273,1.507265 -7.879039,7.793656 -0.01687,6.322237 1.675286,8.007168 8.041477,8.007168 h 3.455499 l -0.123769,1.283808 -0.123769,1.283824 -4.147725,0.09675 c -3.360843,0.07838 -4.447473,-0.04285 -5.727788,-0.63918 z m 15.769201,-0.0045 c -1.626017,-0.991541 -2.717349,-3.318055 -2.726292,-5.811903 -0.01493,-4.171105 1.897324,-5.482878 8.629268,-5.919413 l 4.291261,-0.278279 -0.18749,-1.951161 C 87.684539,23.961885 86.964843,23.536741 81.662737,23.44422 L 77.229014,23.36688 77.10644,21.962915 76.983865,20.558951 h 4.981232 c 5.569203,0 6.644231,0.324084 8.169755,2.462914 0.896288,1.256606 0.919952,1.513311 0.919952,9.980231 v 8.69045 h -1.378703 c -1.21222,0 -1.409295,-0.143028 -1.632094,-1.185062 -0.139296,-0.65178 -0.274442,-0.995601 -0.300151,-0.764024 -0.02568,0.231564 -0.737538,0.809292 -1.581855,1.283809 -2.044592,1.149141 -6.380852,1.211667 -8.174502,0.117946 z m 6.953892,-2.267631 c 1.923989,-0.769816 3.15075,-2.838983 3.15075,-5.314303 v -1.642933 l -3.762398,0.164557 c -3.402737,0.148852 -3.859652,0.261796 -4.779738,1.181897 -1.326956,1.326956 -1.390319,3.548543 -0.139147,4.880306 0.770249,0.819907 1.418357,1.067445 3.439315,1.313684 0.267186,0.03255 1.208248,-0.229891 2.091263,-0.583208 z m 11.333315,2.767977 C 96.119464,41.490344 95.9925,36.682374 95.9925,30.961155 v -10.40221 h 1.580093 c 1.542455,0 1.580078,0.03299 1.580078,1.38257 0,1.570344 0.366619,1.756266 1.111429,0.563649 0.65329,-1.046079 3.44708,-2.321318 5.11015,-2.33256 1.2289,-0.009 1.28381,0.05673 1.28381,1.521149 v 1.529824 l -1.97911,0.190162 c -2.13014,0.204689 -3.22028,0.935733 -4.2829,2.872083 -0.511052,0.931239 -0.693271,2.713318 -0.848363,8.296361 l -0.197508,7.110372 -1.396694,0.117499 c -0.768174,0.06465 -1.523658,-0.009 -1.678839,-0.164588 z m 17.786304,-0.320068 c -3.27799,-1.169714 -4.79799,-3.285223 -5.39638,-7.510584 -0.71421,-5.043146 0.60682,-9.8259 3.27635,-11.862057 3.21126,-2.449357 9.16215,-2.054804 11.64414,0.772026 1.28599,1.46467 2.42901,4.646399 2.42901,6.761461 0,2.600522 0.21162,2.528246 -7.40151,2.528246 h -6.92197 l 0.20544,1.822719 c 0.24386,2.163584 1.23155,3.641974 3.08555,4.618525 1.10908,0.584193 2.08662,0.689792 5.39537,0.582864 4.22,-0.136459 4.45206,-0.05001 4.45206,1.656385 0,0.393522 -0.28118,0.82337 -0.62484,0.955246 -1.17694,0.451645 -8.63673,0.212736 -10.14322,-0.324831 z m 8.46403,-13.458632 c -0.23197,-2.788774 -1.64037,-4.351653 -4.29294,-4.763778 -2.39762,-0.372517 -4.40599,0.702661 -5.54991,2.971143 -0.48883,0.969384 -0.88881,2.174288 -0.88881,2.677531 v 0.914995 l 5.43155,-0.109885 5.43154,-0.109884 z m 11.192,13.373054 c -2.84025,-1.512191 -4.28006,-4.077659 -4.73956,-8.444988 -0.72978,-6.936215 2.22948,-11.680763 7.75991,-12.441397 5.65335,-0.777521 9.8413,3.238567 9.81176,9.409131 -0.0105,2.253358 -0.0742,2.274006 -7.53132,2.449716 l -6.87612,0.162034 0.1284,1.301411 c 0.17683,1.792068 1.23346,3.49478 2.85083,4.593965 1.25945,0.855933 1.68004,0.914577 5.62606,0.784478 l 4.26484,-0.14064 -0.11706,1.389483 -0.1172,1.389467 -4.93775,0.08913 c -3.8932,0.07032 -5.18845,-0.04434 -6.12282,-0.541822 z m 9.44561,-13.076785 c -0.62397,-3.446258 -2.26365,-4.990937 -5.2979,-4.990937 -3.0401,0 -5.0031,1.766269 -5.42035,4.877141 l -0.21396,1.595127 h 5.6002 5.60021 z m 7.5899,13.412245 c -0.16403,-0.265409 -0.36759,-16.34136 -0.25985,-20.522618 0.007,-0.298538 0.55936,-0.493777 1.39529,-0.493777 1.31674,0 1.38257,0.06584 1.38257,1.38257 0,0.760425 0.17777,1.382585 0.39503,1.382585 0.21726,0 0.39501,-0.175247 0.39501,-0.389417 0,-0.799617 2.97921,-2.344728 4.74025,-2.45845 l 1.77759,-0.114811 0.11914,1.423881 0.11914,1.423896 -2.05672,0.243582 c -2.06712,0.244821 -3.45212,1.12894 -4.43948,2.833952 -0.27915,0.482042 -0.53451,3.639077 -0.65501,8.097927 l -0.19752,7.30788 -1.24674,0.121082 c -0.68571,0.06659 -1.34666,-0.04061 -1.46877,-0.238237 z m 13.0519,0.05136 c -0.14482,-0.14482 -0.26335,-0.766994 -0.26335,-1.38257 v -1.119221 h 4.17369 c 2.29552,0 4.49882,-0.174008 4.8962,-0.386685 0.91548,-0.48994 1.52974,-2.279365 1.22329,-3.563517 -0.23918,-1.00226 -0.71335,-1.301276 -5.88962,-3.71419 -3.29597,-1.536423 -4.40356,-2.890357 -4.40356,-5.383011 0,-4.38956 1.7343,-5.518575 8.47721,-5.518575 h 4.55847 v 1.38257 1.382585 h -4.05981 c -4.6006,0 -5.81995,0.48143 -5.80965,2.293758 0.009,1.686558 0.50266,2.11957 4.80513,4.219672 4.82674,2.356 5.65686,3.284134 5.65686,6.32473 0,2.467736 -0.8886,3.964013 -2.99073,5.035906 -1.04801,0.534387 -2.34516,0.690807 -5.73264,0.691285 -2.40798,3.43e-4 -4.49666,-0.117946 -4.64149,-0.262737 z m 37.92199,0 c -0.14482,-0.14482 -0.26335,-4.94434 -0.26335,-10.665559 V 20.55893 h 1.63209 1.6321 l -0.22367,1.678839 -0.22366,1.67884 1.06044,-1.268685 c 1.22622,-1.466999 2.65718,-2.088994 4.80595,-2.088994 1.60631,0 1.95037,0.383983 1.66794,1.861447 -0.13616,0.712381 -0.4348,0.903827 -1.41053,0.90432 -1.63045,8.06e-4 -3.74702,1.10983 -4.76487,2.496655 -0.74237,1.011502 -0.83092,1.779542 -0.95647,8.295435 -0.0933,4.840518 -0.28638,7.275319 -0.59254,7.470945 -0.57042,0.364499 -2.0141,0.388312 -2.36343,0.03897 z m 18.42693,-0.314827 c -2.30221,-1.00129 -2.6616,-2.306552 -2.8862,-10.482399 l -0.20077,-7.30788 -1.48133,-0.122575 c -1.40089,-0.116005 -1.48133,-0.196388 -1.48133,-1.481331 0,-1.319327 0.0454,-1.358727 1.56279,-1.358727 h 1.56277 l 0.11601,-2.863901 0.116,-2.863902 1.48134,-0.122574 1.48133,-0.122575 V 17.572494 20.559 h 3.16015 3.16017 v 1.38257 c 0,1.362519 -0.0243,1.382629 -1.67884,1.386914 -0.92335,0.003 -2.34543,0.114513 -3.16017,0.249196 l -1.48131,0.24485 v 6.012188 c 0,8.406573 0.41084,9.290245 4.31925,9.290245 h 2.00107 v 1.38257 1.38257 l -2.66639,-0.01553 c -1.46651,-0.009 -3.2326,-0.261737 -3.92464,-0.562724 z m 10.63528,-14.507235 0.10347,-15.133665 h 1.38257 1.38257 l 0.10958,5.629041 c 0.0603,3.095972 0.26071,5.629041 0.44541,5.629041 0.1847,0 0.56683,-0.278353 0.84918,-0.618576 0.96748,-1.165728 2.92434,-1.879124 5.16017,-1.881184 3.03152,-0.003 5.01046,1.067414 6.18145,3.342853 0.84581,1.643575 0.9105,2.284934 0.99236,9.839292 l 0.0875,8.081101 h -1.58008 -1.58008 l -0.19751,-7.722111 c -0.16769,-6.556383 -0.30498,-7.885877 -0.90945,-8.806844 -1.31969,-2.010686 -4.39535,-2.444475 -6.63629,-0.935971 -2.25709,1.519402 -2.50561,2.463824 -2.7248,10.354554 l -0.19751,7.110372 -1.48605,0.122874 -1.48604,0.122873 z m 21.63211,4.443695 V 20.55893 h 1.58653 1.58654 l -0.10526,10.566813 -0.10525,10.566797 -1.48133,0.122575 -1.48132,0.122575 z M 39.467927,19.652326 c -1.87572,-0.976208 -3.518564,-3.504171 -3.518564,-5.414245 0,-1.589857 1.64144,-4.4458899 3.119815,-5.428353 1.639007,-1.0891971 4.613464,-1.1957968 6.632496,-0.2377142 0.758321,0.3598558 1.828885,1.3344509 2.379038,2.1657782 0.86265,1.303561 0.97661,1.838619 0.828311,3.888885 -0.141386,1.954072 -0.378473,2.59694 -1.331793,3.610666 -2.292802,2.43807 -5.176665,2.941268 -8.109303,1.414983 z M 252.91448,16.741604 c -0.27376,-0.110481 -0.49378,-0.869832 -0.49378,-1.704145 0,-1.66161 0.6096,-2.143921 2.204,-1.743755 0.80029,0.200867 0.95615,0.483073 0.95615,1.731169 0,1.212488 -0.16611,1.535706 -0.88879,1.729377 -0.99757,0.267335 -1.08528,0.266708 -1.77758,-0.01194 z"
       id="path1" /></g></svg>
