<?xml version="1.0" encoding="UTF-8" standalone="no"?>
<svg
   width="145.14"
   height="11"
   viewBox="0 0 145.13999 11.000001"
   version="1.1"
   id="svg1"
   sodipodi:docname="the-times-of-india-seeklogo.svg"
   inkscape:version="1.4.2 (ebf0e940d0, 2025-05-08)"
   xmlns:inkscape="http://www.inkscape.org/namespaces/inkscape"
   xmlns:sodipodi="http://sodipodi.sourceforge.net/DTD/sodipodi-0.dtd"
   xmlns="http://www.w3.org/2000/svg"
   xmlns:svg="http://www.w3.org/2000/svg">
  <sodipodi:namedview
     id="namedview1"
     pagecolor="#ffffff"
     bordercolor="#000000"
     borderopacity="0.25"
     inkscape:showpageshadow="2"
     inkscape:pageopacity="0.0"
     inkscape:pagecheckerboard="0"
     inkscape:deskcolor="#d1d1d1"
     inkscape:zoom="24.48867"
     inkscape:cx="130.14182"
     inkscape:cy="14.1494"
     inkscape:window-width="1920"
     inkscape:window-height="956"
     inkscape:window-x="0"
     inkscape:window-y="28"
     inkscape:window-maximized="1"
     inkscape:current-layer="THE_TIMES_OF_INDIA_LOGO_" />
  <defs
     id="defs1">
    <clipPath
       id="clip-path">
      <rect
         id="Rectangle_1081"
         data-name="Rectangle 1081"
         width="144.965"
         height="10.845"
         fill="none"
         x="0"
         y="0" />
    </clipPath>
  </defs>
  <g
     id="THE_TIMES_OF_INDIA_LOGO_"
     data-name="THE TIMES OF INDIA LOGO "
     transform="translate(-4187.13,-6443.225)">
    <g
       id="Group_162547"
       data-name="Group 162547"
       transform="translate(4187.2515,6401.6557)">
      <g
         id="Group_162545"
         data-name="Group 162545"
         transform="translate(0,41.684)">
        <g
           id="Group_162544"
           data-name="Group 162544"
           clip-path="url(#clip-path)">
          <path
             id="Path_85496"
             data-name="Path 85496"
             d="m 5.721,9.836 c 0,1.033 1.51,0.516 1.51,0.914 0,0.2 -0.159,0.2 -0.4,0.2 -0.715,0 -1.112,-0.04 -2.026,-0.04 -0.914,0 -1.311,0.04 -2.026,0.04 -0.238,0 -0.4,-0.04 -0.4,-0.2 0,-0.4 1.51,0.119 1.51,-0.914 V 1.017 A 4.276,4.276 0 0 0 0.437,3.6 C 0.278,3.958 0.199,4.156 0.119,4.156 0,4.155 0,4.076 0,4.036 A 3.8,3.8 0 0 1 0.159,3.2 L 0.636,0.7 c 0,-0.08 0.04,-0.278 0.159,-0.278 0.08,0 0.119,0.08 0.2,0.119 C 1.074,0.62 1.233,0.66 1.551,0.66 H 8.1 A 1.278,1.278 0 0 0 8.661,0.54 c 0.08,-0.08 0.119,-0.119 0.2,-0.119 0.119,0 0.159,0.2 0.159,0.278 l 0.477,2.5 A 3.8,3.8 0 0 1 9.656,4.033 0.105,0.105 0 0 1 9.537,4.152 c -0.08,0 -0.159,-0.2 -0.318,-0.556 A 4.276,4.276 0 0 0 5.76,1.017 v 8.819 z"
             transform="translate(0,-0.302)" />
          <path
             id="Path_85497"
             data-name="Path 85497"
             d="M 36.694,6.067 V 10.2 c 0,1.033 1.271,0.517 1.271,0.914 0,0.2 -0.08,0.2 -0.318,0.2 -0.516,0 -0.914,-0.04 -1.828,-0.04 -0.914,0 -1.311,0.04 -1.827,0.04 -0.238,0 -0.318,-0.04 -0.318,-0.2 0,-0.4 1.271,0.119 1.271,-0.914 V 2.1 c 0,-1.033 -1.271,-0.516 -1.271,-0.914 0,-0.2 0.08,-0.2 0.318,-0.2 0.516,0 0.914,0.04 1.827,0.04 0.913,0 1.311,-0.04 1.828,-0.04 0.238,0 0.318,0.04 0.318,0.2 0,0.4 -1.271,-0.119 -1.271,0.914 v 3.57 h 4.37 V 2.094 c 0,-1.033 -1.271,-0.516 -1.271,-0.914 0,-0.2 0.08,-0.2 0.318,-0.2 0.516,0 0.914,0.04 1.827,0.04 0.913,0 1.311,-0.04 1.828,-0.04 0.238,0 0.318,0.04 0.318,0.2 0,0.4 -1.271,-0.119 -1.271,0.914 v 8.1 c 0,1.033 1.271,0.517 1.271,0.914 0,0.2 -0.079,0.2 -0.318,0.2 -0.516,0 -0.914,-0.04 -1.828,-0.04 -0.914,0 -1.311,0.04 -1.827,0.04 -0.238,0 -0.318,-0.04 -0.318,-0.2 0,-0.4 1.271,0.119 1.271,-0.914 V 6.067 Z"
             transform="translate(-24.14,-0.704)" />
          <path
             id="Path_85498"
             data-name="Path 85498"
             d="M 72.971,2.234 C 72.971,1.201 71.7,1.718 71.7,1.32 c 0,-0.2 0.08,-0.2 0.318,-0.2 0.516,0 0.914,0.04 1.827,0.04 3.337,0 4.449,-0.04 5.562,-0.04 l 0.715,2.821 a 3.356,3.356 0 0 1 0.08,0.4 c 0,0.119 -0.04,0.159 -0.119,0.159 -0.2,0 -0.119,-0.4 -0.874,-1.43 C 78.295,1.758 76.984,1.48 75.2,1.48 h -0.437 v 4.449 h 0.318 c 1.311,0 2.3,-0.516 2.3,-2.026 0,-0.238 0.079,-0.278 0.2,-0.278 0.121,0 0.2,0.079 0.2,0.278 v 4.529 c 0,0.238 -0.08,0.278 -0.2,0.278 -0.12,0 -0.2,-0.04 -0.2,-0.278 0,-1.589 -0.993,-2.106 -2.3,-2.106 h -0.318 v 3.933 c 0,0.556 0.358,0.834 1.271,0.834 A 4.386,4.386 0 0 0 80.48,7.756 c 0.08,-0.238 0.119,-0.318 0.238,-0.318 0.119,0 0.119,0.079 0.119,0.159 a 2.145,2.145 0 0 1 -0.04,0.437 l -0.636,3.416 c -1.271,0 -2.542,-0.04 -6.316,-0.04 -0.914,0 -1.311,0.04 -1.827,0.04 -0.238,0 -0.318,-0.04 -0.318,-0.2 0,-0.4 1.271,0.119 1.271,-0.914 z"
             transform="translate(-51.399,-0.804)" />
          <path
             id="Path_85499"
             data-name="Path 85499"
             d="m 121.9,9.836 c 0,1.033 1.51,0.516 1.51,0.914 0,0.2 -0.159,0.2 -0.4,0.2 -0.715,0 -1.112,-0.04 -2.026,-0.04 -0.914,0 -1.311,0.04 -2.026,0.04 -0.238,0 -0.4,-0.04 -0.4,-0.2 0,-0.4 1.51,0.119 1.51,-0.914 V 1.017 A 4.276,4.276 0 0 0 116.616,3.6 c -0.159,0.358 -0.238,0.556 -0.318,0.556 -0.119,0 -0.119,-0.079 -0.119,-0.119 a 3.8,3.8 0 0 1 0.159,-0.834 l 0.477,-2.5 c 0,-0.08 0.04,-0.278 0.159,-0.278 0.08,0 0.119,0.08 0.2,0.119 0.079,0.079 0.238,0.119 0.556,0.119 h 6.555 A 1.278,1.278 0 0 0 124.84,0.54 c 0.08,-0.08 0.119,-0.119 0.2,-0.119 0.119,0 0.159,0.2 0.159,0.278 l 0.477,2.5 a 3.8,3.8 0 0 1 0.159,0.834 0.105,0.105 0 0 1 -0.119,0.119 c -0.08,0 -0.159,-0.2 -0.318,-0.556 a 4.276,4.276 0 0 0 -3.456,-2.582 z"
             transform="translate(-83.285,-0.302)" />
          <path
             id="Path_85500"
             data-name="Path 85500"
             d="m 151.405,2.234 c 0,-1.033 -1.271,-0.516 -1.271,-0.914 0,-0.2 0.08,-0.2 0.318,-0.2 0.517,0 0.914,0.04 1.828,0.04 0.914,0 1.311,-0.04 1.827,-0.04 0.238,0 0.318,0.04 0.318,0.2 0,0.4 -1.271,-0.119 -1.271,0.914 v 8.1 c 0,1.033 1.271,0.516 1.271,0.914 0,0.2 -0.08,0.2 -0.318,0.2 -0.516,0 -0.914,-0.04 -1.827,-0.04 -0.913,0 -1.311,0.04 -1.828,0.04 -0.238,0 -0.318,-0.04 -0.318,-0.2 0,-0.4 1.271,0.119 1.271,-0.914 z"
             transform="translate(-107.626,-0.804)" />
          <path
             id="Path_85501"
             data-name="Path 85501"
             d="m 172.084,8.769 3.258,-7.747 h 0.715 c 0.914,0 1.311,-0.04 1.828,-0.04 0.238,0 0.318,0.04 0.318,0.2 0,0.4 -1.271,-0.119 -1.271,0.914 v 8.1 c 0,1.033 1.271,0.516 1.271,0.914 0,0.2 -0.08,0.2 -0.318,0.2 -0.517,0 -0.914,-0.04 -1.828,-0.04 -0.914,0 -1.311,0.04 -1.827,0.04 -0.238,0 -0.318,-0.04 -0.318,-0.2 0,-0.4 1.271,0.119 1.271,-0.914 V 2.334 h -0.04 l -3.536,8.661 c -0.079,0.119 -0.119,0.318 -0.238,0.318 -0.079,0 -0.119,-0.159 -0.2,-0.318 l -3.456,-8.541 h -0.04 v 6.355 c 0,1.271 0.437,1.907 1.033,2.106 0.4,0.119 0.556,0.079 0.556,0.278 0,0.119 -0.08,0.159 -0.318,0.159 -0.437,0 -0.834,-0.04 -1.43,-0.04 -0.953,0 -1.351,0.04 -1.589,0.04 -0.2,0 -0.357,0 -0.357,-0.159 0,-0.238 0.159,-0.159 0.556,-0.278 1.073,-0.318 1.192,-1.47 1.192,-3.3 V 2.493 c 0,-1.351 -1.55,-0.874 -1.55,-1.232 0,-0.2 0.08,-0.2 0.318,-0.2 0.516,0 0.914,0.04 1.827,0.04 h 0.954 z"
             transform="translate(-118.691,-0.705)" />
          <path
             id="Path_85502"
             data-name="Path 85502"
             d="m 212.441,2.234 c 0,-1.033 -1.271,-0.516 -1.271,-0.914 0,-0.2 0.08,-0.2 0.318,-0.2 0.517,0 0.914,0.04 1.828,0.04 3.337,0 4.449,-0.04 5.562,-0.04 l 0.715,2.821 a 3.294,3.294 0 0 1 0.08,0.4 c 0,0.119 -0.04,0.159 -0.119,0.159 -0.2,0 -0.119,-0.4 -0.874,-1.43 -0.914,-1.311 -2.225,-1.589 -4.013,-1.589 h -0.437 v 4.448 h 0.318 c 1.311,0 2.3,-0.516 2.3,-2.026 0,-0.238 0.079,-0.278 0.2,-0.278 0.121,0 0.2,0.079 0.2,0.278 v 4.529 c 0,0.238 -0.08,0.278 -0.2,0.278 -0.12,0 -0.2,-0.04 -0.2,-0.278 0,-1.589 -0.993,-2.106 -2.3,-2.106 h -0.318 v 3.933 c 0,0.556 0.358,0.834 1.271,0.834 a 4.386,4.386 0 0 0 4.449,-3.337 c 0.08,-0.238 0.119,-0.318 0.238,-0.318 0.119,0 0.119,0.079 0.119,0.159 a 2.131,2.131 0 0 1 -0.04,0.437 l -0.636,3.416 c -1.271,0 -2.543,-0.04 -6.316,-0.04 -0.914,0 -1.311,0.04 -1.828,0.04 -0.238,0 -0.318,-0.04 -0.318,-0.2 0,-0.4 1.271,0.119 1.271,-0.914 z"
             transform="translate(-151.38,-0.804)" />
          <path
             id="Path_85503"
             data-name="Path 85503"
             d="m 245.547,6.537 a 0.182,0.182 0 0 1 0.159,-0.2 c 0.159,0 0.159,0.119 0.238,0.437 0.278,1.867 1.152,3.774 3.258,3.774 1.629,0 2.344,-0.914 2.344,-1.947 0,-3.059 -6,-1.827 -6,-5.562 a 3.211,3.211 0 0 1 3.417,-2.9 c 1.43,0 1.986,0.6 2.622,0.6 0.477,0 0.278,-0.477 0.556,-0.477 0.119,0 0.159,0.079 0.159,0.238 0.2,2.105 0.278,3.178 0.278,3.377 0,0.159 -0.079,0.2 -0.159,0.2 -0.119,0 -0.159,-0.2 -0.2,-0.358 -0.556,-1.708 -1.43,-3.178 -3.258,-3.178 -1.232,0 -1.947,0.675 -1.947,1.629 0,2.781 6,1.867 6,5.522 0,1.589 -1.232,3.218 -3.854,3.218 a 16.025,16.025 0 0 1 -2.7,-0.556 c -0.675,0 -0.437,0.516 -0.715,0.516 -0.08,0 -0.159,-0.04 -0.159,-0.2 z"
             transform="translate(-176.024,-0.101)" />
          <path
             id="Path_85504"
             data-name="Path 85504"
             d="m 298.385,5.783 a 5.443,5.443 0 0 1 -10.885,0 5.443,5.443 0 0 1 10.885,0 m -5.442,-5.006 c -1.986,0 -3.456,1.589 -3.456,5.006 0,3.417 1.47,5.006 3.456,5.006 1.986,0 3.457,-1.589 3.457,-5.006 0,-3.417 -1.471,-5.006 -3.457,-5.006"
             transform="translate(-206.099,-0.3)" />
          <path
             id="Path_85505"
             data-name="Path 85505"
             d="m 328.62,2.234 c 0,-1.033 -1.271,-0.516 -1.271,-0.914 0,-0.2 0.08,-0.2 0.318,-0.2 0.517,0 0.914,0.04 1.828,0.04 3.337,0 4.449,-0.04 5.443,-0.04 l 0.715,2.821 a 3.3,3.3 0 0 1 0.08,0.4 c 0,0.119 -0.04,0.159 -0.119,0.159 -0.2,0 -0.119,-0.4 -0.874,-1.43 -0.914,-1.311 -2.225,-1.589 -4.012,-1.589 h -0.318 v 4.448 h 0.318 c 1.311,0 2.3,-0.516 2.3,-2.026 0,-0.238 0.079,-0.278 0.2,-0.278 0.121,0 0.2,0.079 0.2,0.278 v 4.529 c 0,0.238 -0.08,0.278 -0.2,0.278 -0.12,0 -0.2,-0.04 -0.2,-0.278 0,-1.589 -0.993,-2.106 -2.3,-2.106 h -0.318 v 4.013 c 0,1.033 1.271,0.516 1.271,0.914 0,0.2 -0.08,0.2 -0.318,0.2 -0.516,0 -0.914,-0.04 -1.828,-0.04 -0.914,0 -1.311,0.04 -1.827,0.04 -0.238,0 -0.318,-0.04 -0.318,-0.2 0,-0.4 1.271,0.119 1.271,-0.914 z"
             transform="translate(-234.665,-0.804)" />
          <path
             id="Path_85506"
             data-name="Path 85506"
             d="m 371.7,2.234 c 0,-1.033 -1.271,-0.516 -1.271,-0.914 0,-0.2 0.08,-0.2 0.318,-0.2 0.516,0 0.914,0.04 1.828,0.04 0.914,0 1.311,-0.04 1.827,-0.04 0.238,0 0.318,0.04 0.318,0.2 0,0.4 -1.271,-0.119 -1.271,0.914 v 8.1 c 0,1.033 1.271,0.516 1.271,0.914 0,0.2 -0.08,0.2 -0.318,0.2 -0.516,0 -0.914,-0.04 -1.827,-0.04 -0.913,0 -1.311,0.04 -1.828,0.04 -0.238,0 -0.318,-0.04 -0.318,-0.2 0,-0.4 1.271,0.119 1.271,-0.914 z"
             transform="translate(-265.545,-0.804)" />
          <path
             id="Path_85507"
             data-name="Path 85507"
             d="m 394.84,3.525 c 0,-1.271 -0.556,-1.907 -1.152,-2.106 -0.4,-0.119 -0.556,-0.079 -0.556,-0.278 0,-0.119 0.08,-0.159 0.318,-0.159 0.556,0 0.953,0.04 1.589,0.04 0.636,0 1.033,-0.04 1.589,-0.04 0.238,0 0.318,0.04 0.318,0.159 0,0.2 -0.2,0.159 -0.556,0.278 -0.556,0.2 -1.152,0.795 -1.152,2.106 v 7.786 a 0.188,0.188 0 0 1 -0.2,0.2 0.362,0.362 0 0 1 -0.318,-0.159 L 388.284,2.81 h -0.04 v 5.958 c 0,1.271 0.556,1.907 1.152,2.106 0.4,0.119 0.556,0.079 0.556,0.278 0,0.119 -0.079,0.159 -0.318,0.159 -0.556,0 -0.954,-0.04 -1.589,-0.04 -0.635,0 -1.033,0.04 -1.589,0.04 -0.238,0 -0.318,-0.04 -0.318,-0.159 0,-0.2 0.2,-0.159 0.556,-0.278 0.556,-0.2 1.152,-0.794 1.152,-2.106 V 2.293 c -0.874,-1.271 -1.708,-0.834 -1.708,-1.112 0,-0.159 0.119,-0.2 0.318,-0.2 0.358,0 0.675,0.04 1.152,0.04 H 389 l 5.721,7.668 h 0.04 z"
             transform="translate(-276.81,-0.704)" />
          <path
             id="Path_85508"
             data-name="Path 85508"
             d="m 424.033,2.234 c 0,-1.033 -1.271,-0.516 -1.271,-0.914 0,-0.2 0.079,-0.2 0.318,-0.2 0.516,0 0.914,0.04 1.828,0.04 0.636,0 1.311,-0.04 2.145,-0.04 3.575,0 5.8,2.106 5.8,5.2 a 4.824,4.824 0 0 1 -5.165,5.125 c -1.033,0 -1.907,-0.04 -2.781,-0.04 -0.914,0 -1.311,0.04 -1.828,0.04 -0.238,0 -0.318,-0.04 -0.318,-0.2 0,-0.4 1.271,0.119 1.271,-0.914 z m 1.828,7.466 c 0,0.953 0.556,1.351 1.669,1.351 1.708,0 3.377,-0.795 3.377,-4.648 0,-2.9 -1.152,-4.966 -3.457,-4.966 H 425.9 V 9.7 Z"
             transform="translate(-303.063,-0.804)" />
          <path
             id="Path_85509"
             data-name="Path 85509"
             d="m 462.337,2.234 c 0,-1.033 -1.271,-0.516 -1.271,-0.914 0,-0.2 0.08,-0.2 0.318,-0.2 0.516,0 0.914,0.04 1.827,0.04 0.913,0 1.311,-0.04 1.827,-0.04 0.238,0 0.318,0.04 0.318,0.2 0,0.4 -1.271,-0.119 -1.271,0.914 v 8.1 c 0,1.033 1.271,0.516 1.271,0.914 0,0.2 -0.08,0.2 -0.318,0.2 -0.516,0 -0.914,-0.04 -1.827,-0.04 -0.913,0 -1.311,0.04 -1.827,0.04 -0.238,0 -0.318,-0.04 -0.318,-0.2 0,-0.4 1.271,0.119 1.271,-0.914 z"
             transform="translate(-330.522,-0.804)" />
          <path
             id="Path_85510"
             data-name="Path 85510"
             d="m 477.7,6.912 a 7.668,7.668 0 0 0 -0.6,2.026 c 0,1.51 1.271,1.152 1.271,1.51 0,0.159 -0.079,0.159 -0.238,0.159 -0.318,0 -0.675,-0.04 -1.708,-0.04 -0.516,0 -0.993,0.04 -1.549,0.04 -0.159,0 -0.2,-0.079 -0.2,-0.2 0,-0.278 0.6,-0.119 1.033,-0.477 a 6.329,6.329 0 0 0 1.311,-2.185 c 1.827,-4.529 2.066,-5.085 2.066,-5.244 0,-0.119 -0.358,-0.4 -0.358,-0.556 0,-0.238 0.238,-0.2 0.675,-1.073 0.318,-0.676 0.238,-0.874 0.437,-0.874 0.199,0 0.2,0.516 1.073,2.5 l 3.218,7.151 c 0.4,0.874 1.112,0.437 1.112,0.794 0,0.159 -0.119,0.2 -0.238,0.2 -0.6,0 -1.192,-0.04 -1.827,-0.04 -0.6,0 -1.192,0.04 -1.827,0.04 -0.159,0 -0.238,-0.04 -0.238,-0.2 0,-0.4 1.073,0.08 1.073,-0.755 a 5.664,5.664 0 0 0 -0.238,-0.834 l -0.874,-1.986 z m 1.549,-4.092 -1.43,3.734 h 3.059 z"
             transform="translate(-340.279)" />
        </g>
      </g>
    </g>
  </g>
</svg>
